<svg id="svg" version="1.1" xmlns="http://www.w3.org/2000/svg" xmlns:xlink="http://www.w3.org/1999/xlink" width="400" height="400" viewBox="0, 0, 400,400"><g id="svgg"><path id="path0" d="M120.473 25.950 C 118.037 27.151,116.174 28.732,115.039 30.561 C 113.668 32.771,107.249 42.101,105.374 44.609 C 104.137 46.263,103.125 47.705,103.125 47.812 C 103.125 48.168,100.813 51.440,100.206 51.944 C 99.878 52.217,99.609 52.608,99.609 52.814 C 99.609 53.020,98.994 53.940,98.242 54.857 C 97.490 55.775,96.875 56.697,96.875 56.906 C 96.875 57.115,96.436 57.699,95.898 58.203 C 95.361 58.708,94.922 59.280,94.922 59.475 C 94.922 59.670,94.307 60.580,93.555 61.498 C 92.803 62.416,92.188 63.346,92.188 63.567 C 92.188 63.787,91.906 64.201,91.561 64.487 C 91.216 64.773,90.769 65.366,90.568 65.804 C 89.985 67.072,89.393 67.972,87.093 71.094 C 85.905 72.705,84.638 74.463,84.276 75.000 C 83.915 75.537,83.111 76.694,82.489 77.570 C 81.868 78.447,81.291 79.326,81.207 79.524 C 80.942 80.148,75.032 88.758,73.050 91.406 C 72.005 92.803,71.138 94.062,71.122 94.206 C 71.089 94.511,67.879 99.268,65.630 102.344 C 64.766 103.525,63.928 104.759,63.768 105.086 C 63.608 105.413,62.773 106.698,61.914 107.943 C 61.055 109.187,59.912 110.894,59.375 111.736 C 58.493 113.118,56.883 115.478,52.459 121.875 C 51.642 123.057,50.139 125.188,49.119 126.612 C 48.100 128.036,47.266 129.306,47.266 129.435 C 47.266 129.563,46.214 131.139,44.929 132.935 C 40.141 139.629,39.237 143.897,41.603 148.633 L 42.773 150.977 53.064 151.081 L 63.354 151.185 64.188 150.124 C 65.733 148.161,70.313 141.762,70.313 141.567 C 70.313 141.461,70.646 140.898,71.054 140.316 C 71.462 139.734,72.824 137.701,74.081 135.797 C 75.339 133.894,76.719 131.858,77.148 131.273 C 77.578 130.689,78.621 129.172,79.466 127.903 C 81.231 125.253,81.579 124.797,82.520 123.909 C 82.896 123.554,83.203 123.138,83.203 122.983 C 83.203 122.829,84.302 121.099,85.645 119.140 C 86.987 117.180,88.262 115.285,88.477 114.930 C 88.691 114.574,90.280 112.344,92.006 109.974 C 95.222 105.559,97.939 101.668,98.633 100.483 C 98.848 100.116,99.287 99.547,99.609 99.219 C 100.302 98.513,101.038 97.380,101.523 96.273 C 101.715 95.834,102.154 95.242,102.498 94.956 C 102.843 94.670,103.125 94.255,103.125 94.035 C 103.125 93.815,103.740 92.884,104.492 91.967 C 105.244 91.049,105.859 90.194,105.859 90.067 C 105.859 89.940,106.441 89.003,107.152 87.984 C 107.864 86.966,109.475 84.639,110.732 82.813 C 111.990 80.986,113.518 78.852,114.127 78.069 C 114.736 77.286,115.234 76.520,115.234 76.367 C 115.234 76.214,115.790 75.388,116.468 74.531 C 117.841 72.798,119.531 70.363,119.531 70.119 C 119.531 69.963,120.565 68.444,123.255 64.648 C 124.016 63.574,125.282 61.729,126.068 60.547 C 126.854 59.365,128.121 57.607,128.885 56.639 C 129.649 55.671,130.449 54.591,130.664 54.239 C 130.879 53.886,132.587 51.321,134.460 48.537 C 138.181 43.007,138.428 42.509,139.003 39.399 C 140.877 29.263,129.909 21.302,120.473 25.950 M267.969 25.071 C 267.432 25.295,266.289 25.764,265.430 26.113 C 258.882 28.772,256.468 36.753,260.035 43.945 C 261.521 46.940,261.791 47.363,263.574 49.493 C 264.487 50.583,265.234 51.599,265.234 51.750 C 265.234 51.900,266.025 52.950,266.992 54.081 C 267.959 55.213,268.750 56.318,268.750 56.537 C 268.750 56.756,269.032 57.170,269.377 57.456 C 269.721 57.742,270.168 58.334,270.370 58.773 C 270.998 60.138,271.721 61.291,272.461 62.109 C 272.852 62.542,273.364 63.223,273.598 63.623 C 274.356 64.918,275.520 66.563,276.949 68.359 C 277.718 69.326,278.818 70.820,279.394 71.680 C 279.969 72.539,280.973 73.995,281.626 74.916 C 282.279 75.837,282.813 76.738,282.813 76.919 C 282.813 77.100,283.094 77.482,283.439 77.768 C 283.784 78.054,284.223 78.647,284.415 79.086 C 284.919 80.238,285.561 81.212,287.127 83.201 C 287.889 84.169,288.805 85.400,289.163 85.938 C 289.521 86.475,290.487 87.881,291.310 89.063 C 296.060 95.884,298.828 100.029,298.828 100.317 C 298.828 100.497,299.268 101.058,299.805 101.563 C 300.342 102.067,300.781 102.691,300.781 102.950 C 300.781 103.208,301.037 103.632,301.350 103.892 C 301.663 104.152,303.785 107.117,306.066 110.483 C 308.346 113.848,310.599 117.129,311.071 117.773 C 311.543 118.418,312.898 120.264,314.084 121.875 C 316.697 125.429,318.327 127.889,318.999 129.297 C 319.153 129.619,319.381 129.971,319.505 130.078 C 319.629 130.186,320.257 130.954,320.901 131.785 C 322.024 133.236,322.315 133.649,323.997 136.172 C 324.412 136.795,325.143 137.744,325.621 138.281 C 326.099 138.818,326.814 139.812,327.210 140.490 C 327.606 141.168,328.659 142.766,329.549 144.040 C 330.440 145.315,331.547 147.098,332.009 148.002 C 332.470 148.907,333.104 149.746,333.416 149.866 C 333.729 149.985,333.984 150.328,333.984 150.628 C 333.984 151.079,335.776 151.172,344.529 151.172 L 355.074 151.172 355.955 149.316 C 357.067 146.974,357.231 139.611,356.198 138.398 C 355.869 138.012,355.281 136.992,354.892 136.133 C 354.502 135.273,353.462 133.603,352.580 132.420 C 351.698 131.238,350.451 129.480,349.808 128.514 C 349.165 127.548,347.652 125.439,346.446 123.828 C 345.239 122.217,344.183 120.723,344.098 120.508 C 344.014 120.293,343.066 118.824,341.992 117.243 C 340.918 115.661,339.863 114.071,339.648 113.709 C 339.434 113.347,338.291 111.736,337.109 110.131 C 335.928 108.525,334.785 106.937,334.570 106.602 C 334.355 106.266,333.477 104.970,332.617 103.721 C 331.758 102.472,330.791 101.057,330.469 100.577 C 317.767 81.640,315.352 78.108,314.428 77.123 C 314.012 76.680,313.672 76.182,313.672 76.017 C 313.672 75.852,313.057 74.967,312.305 74.049 C 311.553 73.131,310.938 72.265,310.938 72.124 C 310.938 71.983,310.322 70.992,309.570 69.922 C 308.818 68.852,308.203 67.854,308.203 67.705 C 308.203 67.555,307.827 67.033,307.368 66.544 C 306.908 66.055,306.337 65.299,306.098 64.865 C 305.859 64.430,304.609 62.536,303.320 60.654 C 302.031 58.773,300.801 56.947,300.586 56.596 C 300.019 55.669,297.643 52.185,295.351 48.918 C 294.256 47.356,293.359 45.933,293.359 45.756 C 293.359 45.579,293.008 45.115,292.578 44.727 C 292.148 44.338,291.797 43.838,291.797 43.617 C 291.797 43.396,291.126 42.412,290.305 41.431 C 289.485 40.451,287.300 37.363,285.450 34.570 C 279.590 25.723,273.858 22.608,267.969 25.071 M7.982 130.240 C 4.279 131.852,3.555 134.708,4.097 145.553 L 4.378 151.172 19.767 151.172 C 35.515 151.172,36.115 151.115,34.745 149.745 C 34.122 149.122,33.641 143.183,33.994 140.477 C 34.423 137.191,36.755 131.366,37.933 130.638 C 39.237 129.832,37.066 129.689,23.730 129.703 C 12.479 129.715,8.908 129.836,7.982 130.240 M85.287 130.332 C 85.140 130.730,84.260 132.153,83.331 133.494 C 82.401 134.836,81.641 136.003,81.641 136.088 C 81.641 136.172,80.674 137.711,79.493 139.507 C 76.645 143.840,76.479 144.085,75.684 145.126 C 75.308 145.619,75.000 146.186,75.000 146.388 C 75.000 146.589,74.648 147.072,74.219 147.461 C 73.789 147.850,73.438 148.404,73.438 148.693 C 73.438 148.982,73.306 149.220,73.145 149.222 C 72.983 149.223,72.648 149.663,72.400 150.198 L 71.949 151.172 198.879 151.172 L 325.809 151.172 325.307 150.343 C 325.031 149.887,324.613 149.185,324.379 148.783 C 324.145 148.381,323.690 147.743,323.367 147.366 C 323.044 146.989,322.104 145.537,321.277 144.141 C 320.451 142.744,319.663 141.514,319.527 141.406 C 319.390 141.299,319.158 140.947,319.010 140.625 C 318.862 140.303,318.394 139.512,317.970 138.867 C 317.546 138.223,317.018 137.344,316.797 136.914 C 316.576 136.484,316.090 135.665,315.717 135.093 C 315.344 134.521,314.527 133.203,313.901 132.163 C 313.275 131.124,312.633 130.186,312.473 130.078 C 311.446 129.385,85.542 129.638,85.287 130.332 M359.375 130.300 C 359.375 130.636,359.809 131.480,360.339 132.175 C 364.031 137.016,365.209 144.684,363.062 149.902 L 362.540 151.172 377.888 151.172 L 393.237 151.172 393.474 143.738 C 393.772 134.413,392.947 131.945,388.977 130.292 C 386.778 129.377,359.375 129.383,359.375 130.300 M346.063 137.748 C 348.163 138.168,350.781 141.509,350.781 143.769 C 350.781 149.156,344.304 151.880,340.197 148.220 C 335.665 144.180,339.952 136.526,346.063 137.748 M55.508 138.318 C 60.298 139.861,60.925 146.479,56.550 149.316 C 55.480 150.010,50.781 150.324,50.781 149.702 C 50.781 149.538,50.390 149.230,49.912 149.018 C 43.383 146.123,48.625 136.101,55.508 138.318 " stroke="none" fill="#ec8422" fill-rule="evenodd"></path><path id="path1" d="M261.328 47.388 C 261.328 47.455,261.899 48.026,262.598 48.657 L 263.867 49.805 262.720 48.535 C 261.650 47.352,261.328 47.086,261.328 47.388 M350.424 128.757 C 350.943 129.427,351.446 129.905,351.542 129.819 C 351.638 129.734,351.213 129.186,350.599 128.601 L 349.481 127.539 350.424 128.757 M15.942 129.199 C 19.232 129.264,24.505 129.264,27.661 129.198 C 30.817 129.133,28.125 129.079,21.680 129.079 C 15.234 129.079,12.652 129.133,15.942 129.199 M35.156 129.124 C 36.608 129.440,38.599 129.496,38.426 129.215 C 38.321 129.045,37.411 128.927,36.403 128.952 C 35.395 128.976,34.834 129.054,35.156 129.124 M92.305 129.198 C 94.411 129.268,97.751 129.268,99.727 129.197 C 101.703 129.126,99.980 129.069,95.898 129.069 C 91.816 129.069,90.200 129.127,92.305 129.198 M122.949 129.196 C 124.507 129.270,127.056 129.270,128.613 129.196 C 130.171 129.122,128.896 129.061,125.781 129.061 C 122.666 129.061,121.392 129.122,122.949 129.196 M150.862 129.196 C 152.303 129.270,154.764 129.271,156.331 129.197 C 157.898 129.122,156.719 129.061,153.711 129.060 C 150.703 129.060,149.421 129.121,150.862 129.196 M175.098 129.195 C 176.333 129.272,178.354 129.272,179.590 129.195 C 180.825 129.117,179.814 129.054,177.344 129.054 C 174.873 129.054,173.862 129.117,175.098 129.195 M184.087 129.187 C 184.681 129.276,185.560 129.274,186.041 129.181 C 186.521 129.089,186.035 129.015,184.961 129.018 C 183.887 129.021,183.494 129.097,184.087 129.187 M207.536 129.196 C 208.995 129.272,211.280 129.271,212.614 129.195 C 213.948 129.119,212.754 129.057,209.961 129.058 C 207.168 129.059,206.077 129.121,207.536 129.196 M238.956 129.188 C 239.650 129.274,240.880 129.276,241.691 129.191 C 242.501 129.107,241.934 129.036,240.430 129.034 C 238.926 129.033,238.263 129.102,238.956 129.188 M268.848 129.176 C 269.224 129.274,269.839 129.274,270.215 129.176 C 270.591 129.077,270.283 128.997,269.531 128.997 C 268.779 128.997,268.472 129.077,268.848 129.176 M372.384 129.198 C 374.489 129.268,377.829 129.268,379.805 129.197 C 381.782 129.126,380.059 129.069,375.977 129.069 C 371.895 129.069,370.278 129.127,372.384 129.198 M52.251 138.558 C 52.737 138.651,53.440 138.647,53.813 138.550 C 54.187 138.452,53.789 138.375,52.930 138.380 C 52.070 138.384,51.765 138.464,52.251 138.558 M39.965 143.555 C 39.967 144.844,40.040 145.324,40.127 144.622 C 40.214 143.920,40.212 142.865,40.123 142.278 C 40.034 141.691,39.963 142.266,39.965 143.555 M350.099 143.945 C 350.103 144.805,350.183 145.110,350.276 144.624 C 350.370 144.138,350.366 143.435,350.268 143.062 C 350.171 142.688,350.094 143.086,350.099 143.945 M63.843 151.660 L 62.695 152.930 63.965 151.782 C 64.663 151.151,65.234 150.580,65.234 150.513 C 65.234 150.211,64.912 150.477,63.843 151.660 M334.570 152.734 C 335.846 154.023,336.977 155.078,337.085 155.078 C 337.192 155.078,336.237 154.023,334.961 152.734 C 333.685 151.445,332.554 150.391,332.446 150.391 C 332.339 150.391,333.295 151.445,334.570 152.734 M39.648 157.031 C 40.488 157.891,41.262 158.594,41.369 158.594 C 41.477 158.594,40.878 157.891,40.039 157.031 C 39.200 156.172,38.425 155.469,38.318 155.469 C 38.211 155.469,38.809 156.172,39.648 157.031 M344.438 162.776 C 344.924 162.870,345.627 162.866,346.001 162.768 C 346.374 162.671,345.977 162.594,345.117 162.599 C 344.258 162.603,343.952 162.683,344.438 162.776 M335.650 174.108 C 336.244 174.198,337.123 174.196,337.603 174.103 C 338.083 174.010,337.598 173.937,336.523 173.940 C 335.449 173.943,335.056 174.019,335.650 174.108 M364.347 174.110 C 365.040 174.196,366.271 174.198,367.081 174.113 C 367.892 174.029,367.324 173.958,365.820 173.956 C 364.316 173.955,363.653 174.024,364.347 174.110 M371.582 174.108 C 372.173 174.197,373.140 174.197,373.730 174.108 C 374.321 174.018,373.838 173.945,372.656 173.945 C 371.475 173.945,370.991 174.018,371.582 174.108 M207.730 174.508 C 209.081 174.585,211.191 174.584,212.418 174.507 C 213.645 174.430,212.539 174.367,209.961 174.368 C 207.383 174.369,206.379 174.432,207.730 174.508 M329.016 174.506 C 330.043 174.587,331.625 174.586,332.531 174.504 C 333.438 174.422,332.598 174.356,330.664 174.357 C 328.730 174.359,327.989 174.426,329.016 174.506 M356.934 174.507 C 358.062 174.586,359.907 174.586,361.035 174.507 C 362.163 174.428,361.240 174.363,358.984 174.363 C 356.729 174.363,355.806 174.428,356.934 174.507 M383.887 174.501 C 384.585 174.588,385.728 174.588,386.426 174.501 C 387.124 174.415,386.553 174.344,385.156 174.344 C 383.760 174.344,383.188 174.415,383.887 174.501 M20.568 181.152 C 20.468 181.313,24.281 181.401,29.041 181.346 C 45.467 181.157,47.027 181.028,33.910 180.944 C 26.671 180.897,20.668 180.991,20.568 181.152 M59.303 181.152 C 63.453 181.215,70.133 181.215,74.147 181.152 C 78.161 181.088,74.766 181.036,66.602 181.037 C 58.438 181.037,55.153 181.089,59.303 181.152 M138.994 181.152 C 147.657 181.211,161.720 181.211,170.244 181.152 C 178.768 181.093,171.680 181.045,154.492 181.046 C 137.305 181.046,130.330 181.094,138.994 181.152 M192.871 181.147 C 193.999 181.226,195.845 181.226,196.973 181.147 C 198.101 181.068,197.178 181.004,194.922 181.004 C 192.666 181.004,191.743 181.068,192.871 181.147 M210.656 181.147 C 211.683 181.228,213.265 181.227,214.172 181.145 C 215.079 181.063,214.238 180.997,212.305 180.998 C 210.371 180.999,209.629 181.066,210.656 181.147 M235.645 181.149 C 237.095 181.224,239.468 181.224,240.918 181.149 C 242.368 181.074,241.182 181.012,238.281 181.012 C 235.381 181.012,234.194 181.074,235.645 181.149 M270.801 181.151 C 273.325 181.219,277.456 181.219,279.980 181.151 C 282.505 181.083,280.439 181.027,275.391 181.027 C 270.342 181.027,268.276 181.083,270.801 181.151 M309.692 181.152 C 312.982 181.217,318.255 181.217,321.411 181.151 C 324.567 181.086,321.875 181.032,315.430 181.032 C 308.984 181.033,306.402 181.086,309.692 181.152 M335.059 181.135 C 335.542 181.228,336.333 181.228,336.816 181.135 C 337.300 181.042,336.904 180.966,335.938 180.966 C 334.971 180.966,334.575 181.042,335.059 181.135 M352.858 181.152 C 357.331 181.215,364.538 181.215,368.874 181.152 C 373.210 181.089,369.551 181.038,360.742 181.038 C 351.934 181.038,348.386 181.089,352.858 181.152 M374.172 197.571 C 374.044 198.347,374.101 198.712,374.318 198.495 C 374.514 198.298,374.610 197.721,374.530 197.213 C 374.407 196.431,374.352 196.486,374.172 197.571 M373.391 201.086 C 373.262 201.863,373.320 202.227,373.536 202.010 C 373.733 201.814,373.829 201.237,373.749 200.729 C 373.626 199.947,373.571 200.002,373.391 201.086 M137.394 207.313 C 138.087 207.399,139.318 207.401,140.128 207.316 C 140.938 207.232,140.371 207.161,138.867 207.159 C 137.363 207.158,136.700 207.227,137.394 207.313 M257.134 207.312 C 257.728 207.401,258.607 207.399,259.087 207.306 C 259.568 207.214,259.082 207.140,258.008 207.143 C 256.934 207.146,256.541 207.222,257.134 207.312 M132.227 208.384 C 130.686 209.090,131.034 209.102,133.203 208.419 C 134.170 208.114,134.609 207.861,134.180 207.856 C 133.750 207.852,132.871 208.089,132.227 208.384 M252.539 208.203 C 252.047 208.415,251.974 208.539,252.344 208.539 C 252.666 208.539,253.281 208.388,253.711 208.203 C 254.203 207.992,254.276 207.867,253.906 207.867 C 253.584 207.867,252.969 208.018,252.539 208.203 M25.872 209.375 C 25.872 210.127,25.952 210.435,26.051 210.059 C 26.149 209.683,26.149 209.067,26.051 208.691 C 25.952 208.315,25.872 208.623,25.872 209.375 M144.922 208.299 C 145.238 208.611,148.828 210.128,148.828 209.949 C 148.828 209.859,148.345 209.540,147.754 209.239 C 146.584 208.644,144.607 207.988,144.922 208.299 M249.512 209.402 C 248.706 209.827,248.047 210.262,248.047 210.369 C 248.047 210.543,251.132 209.101,251.530 208.741 C 251.979 208.334,250.806 208.718,249.512 209.402 M371.728 209.195 C 371.594 209.544,371.502 210.211,371.524 210.676 C 371.550 211.212,371.682 211.022,371.885 210.159 C 372.226 208.707,372.134 208.138,371.728 209.195 M127.469 210.918 C 125.172 212.410,122.604 214.995,121.821 216.602 C 121.387 217.491,121.876 216.961,123.926 214.318 C 124.517 213.556,126.011 212.277,127.246 211.476 C 129.602 209.949,130.365 209.375,130.039 209.375 C 129.931 209.375,128.775 210.069,127.469 210.918 M149.414 210.421 C 149.629 210.619,150.617 211.425,151.610 212.211 C 152.602 212.998,153.983 214.527,154.678 215.610 C 156.079 217.794,156.279 217.970,155.957 216.738 C 155.695 215.736,151.388 211.269,150.000 210.560 C 149.463 210.285,149.199 210.223,149.414 210.421 M269.531 210.935 C 279.907 219.674,281.237 233.377,272.499 241.504 L 271.344 242.578 318.484 242.578 C 344.412 242.578,365.626 242.534,365.626 242.480 C 365.627 242.427,365.993 240.537,366.439 238.281 C 366.886 236.025,367.492 232.861,367.787 231.250 C 368.082 229.639,368.502 227.529,368.719 226.563 C 368.936 225.596,369.305 223.662,369.538 222.266 C 369.771 220.869,370.060 219.331,370.180 218.848 L 370.397 217.969 323.295 217.969 L 276.192 217.969 275.539 216.699 C 274.830 215.319,270.628 211.107,269.348 210.493 C 268.750 210.206,268.795 210.315,269.531 210.935 M244.481 212.988 C 243.496 213.901,242.223 215.396,241.652 216.309 L 240.615 217.969 198.481 217.969 L 156.347 217.969 157.358 220.605 C 158.234 222.890,158.369 223.842,158.369 227.734 L 158.370 232.227 156.563 235.959 C 155.357 238.450,154.224 240.171,153.158 241.135 L 151.560 242.578 198.414 242.578 L 245.267 242.578 243.630 240.911 C 236.533 233.688,236.912 221.342,244.470 213.574 C 247.034 210.939,247.040 210.616,244.481 212.988 M26.568 214.095 C 26.572 214.614,26.751 215.303,26.966 215.625 C 27.249 216.049,27.296 215.835,27.135 214.856 C 26.864 213.211,26.560 212.803,26.568 214.095 M370.526 215.057 C 370.376 216.053,370.334 216.948,370.431 217.046 C 370.529 217.144,370.731 216.408,370.881 215.412 C 371.030 214.416,371.072 213.520,370.975 213.423 C 370.877 213.325,370.675 214.060,370.526 215.057 M27.486 218.359 C 27.591 219.111,27.848 220.430,28.055 221.289 C 28.594 223.524,30.342 231.912,31.270 236.719 C 31.705 238.975,32.146 241.216,32.249 241.699 L 32.437 242.578 79.102 242.578 L 125.768 242.578 123.981 240.723 C 118.994 235.543,117.550 227.095,120.432 219.958 L 121.315 217.773 74.647 217.874 C 37.504 217.954,27.910 217.875,27.637 217.484 C 27.424 217.179,27.366 217.512,27.486 218.359 " stroke="none" fill="#d86c14" fill-rule="evenodd"></path><path id="path2" d="M270.969 60.429 C 271.277 61.274,273.438 63.842,273.438 63.363 C 273.438 63.178,272.998 62.614,272.461 62.109 C 271.924 61.605,271.484 60.969,271.484 60.697 C 271.484 60.425,271.311 60.095,271.098 59.964 C 270.867 59.821,270.815 60.008,270.969 60.429 M115.918 75.209 C 114.942 76.514,115.069 76.878,116.060 75.618 C 116.514 75.041,116.822 74.507,116.744 74.432 C 116.666 74.357,116.294 74.707,115.918 75.209 M287.889 84.668 C 288.401 85.366,288.880 85.938,288.954 85.938 C 289.251 85.938,288.283 84.472,287.642 83.952 C 287.220 83.610,287.314 83.882,287.889 84.668 M67.186 99.707 C 66.611 100.493,66.517 100.765,66.939 100.423 C 67.579 99.903,68.548 98.438,68.251 98.438 C 68.177 98.438,67.697 99.009,67.186 99.707 M297.656 98.498 C 297.656 99.131,298.952 101.144,299.892 101.972 L 300.977 102.927 299.902 101.735 C 299.312 101.080,298.823 100.377,298.816 100.174 C 298.803 99.788,297.656 98.131,297.656 98.498 M98.859 99.969 C 98.842 100.275,98.527 100.890,98.159 101.336 C 97.528 102.102,97.542 102.101,98.400 101.310 C 98.901 100.849,99.216 100.234,99.100 99.943 C 98.930 99.514,98.884 99.519,98.859 99.969 M303.530 107.248 C 303.545 107.640,305.464 110.112,305.467 109.744 C 305.468 109.624,305.029 108.931,304.492 108.203 C 303.955 107.475,303.522 107.045,303.530 107.248 M335.546 108.105 C 336.057 108.804,336.536 109.375,336.611 109.375 C 336.907 109.375,335.939 107.910,335.298 107.390 C 334.876 107.047,334.971 107.320,335.546 108.105 M309.375 115.882 C 309.375 116.096,309.858 116.696,310.449 117.217 L 311.523 118.164 310.547 116.992 C 310.010 116.348,309.526 115.747,309.473 115.658 C 309.419 115.568,309.375 115.669,309.375 115.882 M344.155 120.530 C 344.170 120.922,346.089 123.394,346.092 123.025 C 346.093 122.906,345.654 122.212,345.117 121.484 C 344.580 120.756,344.147 120.327,344.155 120.530 M314.844 123.181 C 314.844 123.327,315.459 124.321,316.211 125.391 C 316.963 126.460,317.578 127.486,317.578 127.670 C 317.578 127.854,317.974 128.339,318.457 128.748 C 319.335 129.491,319.335 129.491,318.652 128.680 C 318.276 128.234,317.969 127.748,317.969 127.602 C 317.969 127.456,317.329 126.415,316.547 125.289 C 314.862 122.865,314.844 122.842,314.844 123.181 M49.595 125.409 C 48.907 126.278,48.408 127.050,48.488 127.124 C 48.568 127.197,49.210 126.486,49.915 125.543 C 51.525 123.389,51.277 123.284,49.595 125.409 M80.325 126.660 L 79.622 127.930 80.427 126.953 C 81.142 126.087,81.459 125.391,81.139 125.391 C 81.078 125.391,80.712 125.962,80.325 126.660 M350.367 129.384 C 351.048 130.399,351.814 131.352,352.072 131.502 C 352.329 131.652,352.231 131.423,351.855 130.993 C 351.479 130.564,351.172 130.037,351.172 129.822 C 351.172 129.608,350.713 129.007,350.151 128.486 C 349.206 127.609,349.222 127.676,350.367 129.384 M16.504 129.589 C 20.532 129.653,27.124 129.653,31.152 129.589 C 35.181 129.526,31.885 129.474,23.828 129.474 C 15.771 129.474,12.476 129.526,16.504 129.589 M46.387 130.288 C 45.411 131.592,45.538 131.956,46.529 130.696 C 46.983 130.119,47.291 129.585,47.213 129.510 C 47.134 129.435,46.763 129.785,46.387 130.288 M92.111 129.588 C 94.324 129.658,97.840 129.658,99.923 129.588 C 102.006 129.518,100.195 129.461,95.898 129.461 C 91.602 129.461,89.897 129.519,92.111 129.588 M120.410 129.588 C 122.505 129.658,125.933 129.658,128.027 129.588 C 130.122 129.518,128.408 129.460,124.219 129.460 C 120.029 129.460,118.315 129.518,120.410 129.588 M135.272 129.588 C 136.947 129.661,139.583 129.661,141.131 129.587 C 142.679 129.513,141.309 129.453,138.086 129.453 C 134.863 129.454,133.597 129.514,135.272 129.588 M148.555 129.588 C 150.661 129.659,154.001 129.658,155.977 129.588 C 157.953 129.517,156.230 129.459,152.148 129.460 C 148.066 129.460,146.450 129.518,148.555 129.588 M163.574 129.587 C 165.132 129.661,167.681 129.661,169.238 129.587 C 170.796 129.513,169.521 129.452,166.406 129.452 C 163.291 129.452,162.017 129.513,163.574 129.587 M176.290 129.588 C 178.396 129.659,181.736 129.658,183.712 129.588 C 185.688 129.517,183.965 129.459,179.883 129.460 C 175.801 129.460,174.184 129.518,176.290 129.588 M193.471 129.586 C 194.714 129.664,196.648 129.663,197.768 129.584 C 198.888 129.506,197.871 129.442,195.508 129.443 C 193.145 129.444,192.228 129.508,193.471 129.586 M204.415 129.588 C 206.521 129.659,209.861 129.658,211.837 129.588 C 213.813 129.517,212.090 129.459,208.008 129.460 C 203.926 129.460,202.309 129.518,204.415 129.588 M232.520 129.588 C 234.614 129.658,238.042 129.658,240.137 129.588 C 242.231 129.518,240.518 129.460,236.328 129.460 C 232.139 129.460,230.425 129.518,232.520 129.588 M247.759 129.577 C 248.353 129.667,249.232 129.665,249.712 129.572 C 250.193 129.479,249.707 129.406,248.633 129.409 C 247.559 129.412,247.166 129.487,247.759 129.577 M265.723 129.584 C 266.743 129.664,268.413 129.664,269.434 129.584 C 270.454 129.504,269.619 129.438,267.578 129.438 C 265.537 129.438,264.702 129.504,265.723 129.584 M294.954 129.440 C 295.044 129.519,295.976 129.676,297.025 129.789 C 298.192 129.914,298.723 129.861,298.393 129.651 C 297.886 129.331,294.601 129.129,294.954 129.440 M359.119 129.900 C 358.992 130.231,358.997 130.612,359.131 130.746 C 359.265 130.880,359.375 130.707,359.375 130.362 C 359.375 129.925,359.819 129.688,360.840 129.581 L 362.305 129.428 360.828 129.363 C 359.812 129.317,359.278 129.485,359.119 129.900 M363.379 129.566 C 363.755 129.664,364.370 129.664,364.746 129.566 C 365.122 129.468,364.814 129.388,364.063 129.388 C 363.311 129.388,363.003 129.468,363.379 129.566 M372.777 129.589 C 375.528 129.656,379.923 129.656,382.542 129.588 C 385.162 129.521,382.910 129.466,377.539 129.466 C 372.168 129.466,370.025 129.522,372.777 129.589 M84.400 131.348 C 83.630 132.878,83.625 132.931,84.339 132.031 C 85.030 131.161,85.668 129.688,85.354 129.688 C 85.289 129.688,84.859 130.435,84.400 131.348 M5.502 131.934 C 4.627 132.954,3.921 134.053,3.934 134.375 C 3.947 134.729,4.089 134.632,4.291 134.131 C 4.476 133.674,5.316 132.575,6.159 131.689 C 7.002 130.803,7.557 130.078,7.392 130.078 C 7.227 130.078,6.376 130.913,5.502 131.934 M312.895 130.273 C 312.895 130.488,313.245 131.191,313.672 131.836 C 314.683 133.363,314.684 132.820,313.673 131.162 C 313.244 130.458,312.894 130.059,312.895 130.273 M320.313 131.478 C 320.313 131.618,320.840 132.333,321.484 133.067 C 322.129 133.802,322.656 134.287,322.656 134.147 C 322.656 134.007,322.129 133.292,321.484 132.558 C 320.840 131.823,320.313 131.338,320.313 131.478 M76.097 132.715 C 75.408 133.516,74.892 134.375,75.099 134.375 C 75.178 134.375,75.634 133.848,76.110 133.203 C 77.052 131.930,77.043 131.613,76.097 132.715 M360.171 132.227 C 360.172 132.441,360.533 133.057,360.972 133.594 C 361.503 134.242,361.636 134.308,361.367 133.789 C 360.709 132.515,360.168 131.809,360.171 132.227 M44.142 133.397 C 43.638 133.933,43.313 134.458,43.418 134.564 C 43.524 134.670,43.998 134.231,44.473 133.589 C 45.524 132.167,45.377 132.082,44.142 133.397 M82.105 134.750 C 81.635 135.386,81.250 136.003,81.250 136.121 C 81.250 136.239,80.622 137.230,79.854 138.322 C 79.087 139.414,78.523 140.372,78.601 140.450 C 78.758 140.607,80.707 137.760,82.729 134.423 C 83.458 133.218,83.097 133.408,82.105 134.750 M393.034 134.786 C 393.263 135.441,393.522 135.905,393.611 135.816 C 393.804 135.623,393.067 133.594,392.803 133.594 C 392.702 133.594,392.806 134.130,393.034 134.786 M34.779 136.875 C 34.312 138.278,34.004 139.915,34.094 140.514 C 34.257 141.593,34.258 141.592,34.316 140.393 C 34.349 139.729,34.727 138.162,35.157 136.911 C 35.588 135.661,35.869 134.567,35.783 134.481 C 35.697 134.395,35.245 135.473,34.779 136.875 M315.625 135.081 C 315.625 135.312,315.812 135.616,316.040 135.757 C 316.268 135.898,316.622 136.392,316.827 136.854 C 317.032 137.317,317.550 138.223,317.979 138.867 C 318.408 139.512,318.865 140.347,318.995 140.723 C 319.125 141.099,319.401 141.406,319.609 141.406 C 319.980 141.406,318.723 139.059,317.709 137.860 C 317.422 137.521,317.188 137.109,317.188 136.945 C 317.188 136.781,316.836 136.200,316.406 135.653 C 315.977 135.107,315.625 134.849,315.625 135.081 M323.145 135.413 C 323.521 135.843,323.836 136.356,323.846 136.554 C 323.855 136.752,324.678 137.793,325.674 138.867 C 326.670 139.941,327.010 140.205,326.430 139.453 C 325.849 138.701,324.946 137.442,324.422 136.654 C 323.898 135.866,323.242 135.089,322.965 134.927 C 322.688 134.764,322.769 134.983,323.145 135.413 M73.177 137.012 C 72.809 137.603,72.321 138.339,72.094 138.649 C 71.792 139.059,71.802 139.139,72.129 138.943 C 72.603 138.659,74.315 135.938,74.019 135.938 C 73.924 135.938,73.545 136.421,73.177 137.012 M341.671 138.442 C 340.850 138.947,339.891 139.776,339.540 140.285 C 339.058 140.984,339.268 140.893,340.397 139.911 C 343.479 137.233,346.214 137.218,348.605 139.865 C 349.372 140.714,350.000 141.271,350.000 141.103 C 350.000 138.522,344.434 136.744,341.671 138.442 M50.140 138.642 C 49.465 139.053,48.781 139.604,48.620 139.865 C 48.458 140.126,48.888 139.925,49.574 139.417 C 50.315 138.870,51.648 138.394,52.853 138.247 L 54.883 138.001 53.125 137.947 C 52.001 137.913,50.925 138.163,50.140 138.642 M57.117 139.437 C 57.652 139.858,58.375 140.781,58.724 141.488 C 59.072 142.195,59.361 142.506,59.366 142.179 C 59.377 141.462,57.144 138.672,56.560 138.672 C 56.331 138.672,56.582 139.016,57.117 139.437 M356.827 143.479 C 356.832 146.016,356.950 147.685,357.090 147.190 C 357.435 145.966,357.439 142.339,357.097 140.430 C 356.914 139.406,356.821 140.457,356.827 143.479 M40.384 140.407 C 40.266 140.717,40.237 141.288,40.321 141.676 C 40.417 142.117,40.551 141.906,40.677 141.113 C 40.890 139.783,40.752 139.450,40.384 140.407 M393.452 145.801 L 393.359 151.172 377.950 151.172 L 362.540 151.172 363.069 149.902 C 363.360 149.204,363.706 147.754,363.838 146.680 C 364.054 144.929,364.000 145.018,363.315 147.530 C 360.845 156.584,353.269 162.919,344.958 162.878 C 337.249 162.840,330.002 157.392,323.229 146.545 C 320.932 142.865,320.217 141.797,320.052 141.797 C 319.793 141.797,321.170 144.062,324.303 148.793 C 326.053 151.434,339.849 151.172,198.879 151.172 L 71.949 151.172 72.400 150.198 C 72.648 149.663,72.983 149.223,73.145 149.222 C 73.306 149.220,73.438 148.982,73.438 148.693 C 73.438 148.404,73.789 147.850,74.219 147.461 C 74.648 147.072,75.000 146.598,75.000 146.408 C 75.000 146.099,76.445 143.854,76.962 143.359 C 77.472 142.872,78.553 140.947,78.191 141.170 C 77.968 141.308,76.860 142.824,75.728 144.539 C 74.597 146.253,73.552 147.656,73.405 147.656 C 73.258 147.656,73.032 147.964,72.902 148.340 C 72.772 148.716,72.356 149.491,71.977 150.063 C 71.599 150.635,70.782 151.953,70.163 152.993 C 67.354 157.707,60.934 162.109,56.867 162.109 C 56.123 162.109,55.406 162.285,55.273 162.500 C 55.001 162.941,51.060 163.039,50.636 162.615 C 50.485 162.464,49.884 162.278,49.302 162.203 C 42.391 161.304,35.784 154.489,34.392 146.823 L 34.011 144.727 34.171 147.028 C 34.258 148.294,34.516 149.516,34.743 149.743 C 36.115 151.115,35.520 151.172,19.744 151.172 L 4.331 151.172 4.196 148.340 C 4.122 146.782,4.027 150.678,3.984 156.997 L 3.906 168.486 4.953 170.273 C 6.109 172.245,7.134 173.264,8.558 173.855 C 9.180 174.114,64.288 174.233,171.644 174.206 C 260.824 174.183,345.303 174.170,359.375 174.175 C 390.156 174.186,389.043 174.258,391.191 172.110 C 393.702 169.600,393.795 168.908,393.661 153.711 C 393.597 146.406,393.502 142.847,393.452 145.801 M329.071 143.881 C 330.055 145.288,330.859 146.604,330.859 146.805 C 330.859 147.006,331.152 147.411,331.509 147.706 C 332.105 148.197,332.115 148.160,331.640 147.266 C 330.835 145.754,328.106 141.831,327.672 141.563 C 327.458 141.431,328.087 142.474,329.071 143.881 M350.316 143.164 C 350.534 145.027,349.751 147.077,348.381 148.229 C 347.735 148.774,347.362 149.219,347.553 149.219 C 349.308 149.219,351.875 142.909,350.472 142.043 C 350.302 141.938,350.232 142.442,350.316 143.164 M338.327 143.665 C 338.270 145.258,339.076 147.221,340.197 148.220 C 341.856 149.699,346.084 150.574,346.706 149.568 C 346.891 149.268,346.607 149.216,345.782 149.397 C 342.702 150.073,339.245 147.583,338.693 144.292 C 338.433 142.738,338.365 142.621,338.327 143.665 M66.650 146.755 C 65.448 148.432,64.221 150.115,63.923 150.495 C 63.425 151.128,62.536 151.176,53.077 151.081 L 42.773 150.977 42.047 149.489 C 41.647 148.672,41.224 148.099,41.105 148.217 C 40.734 148.588,42.703 152.014,43.672 152.683 C 44.180 153.033,45.176 153.804,45.885 154.395 C 46.593 154.985,47.447 155.469,47.782 155.469 C 48.117 155.469,48.489 155.627,48.609 155.821 C 49.473 157.219,57.199 156.462,59.751 154.730 C 61.801 153.338,64.844 150.699,64.844 150.313 C 64.844 149.902,68.376 144.810,68.907 144.455 C 69.130 144.305,69.206 144.076,69.074 143.944 C 68.943 143.813,67.852 145.078,66.650 146.755 M47.266 145.358 C 47.266 146.288,48.922 148.580,49.912 149.018 C 50.390 149.230,50.781 149.538,50.781 149.702 C 50.781 149.866,51.842 150.000,53.139 150.000 C 56.278 150.000,58.698 148.484,59.205 146.201 C 59.422 145.226,59.374 145.254,58.727 146.477 C 56.482 150.721,50.469 150.729,48.202 146.490 C 47.687 145.527,47.266 145.018,47.266 145.358 M40.240 145.931 C 40.244 146.343,40.425 146.943,40.643 147.266 C 40.932 147.694,40.969 147.536,40.777 146.680 C 40.456 145.243,40.232 144.932,40.240 145.931 M332.031 148.606 C 332.031 149.874,335.919 154.002,338.260 155.222 C 342.413 157.384,350.495 156.145,354.040 152.804 C 355.212 151.699,356.834 148.891,356.495 148.553 C 356.386 148.443,356.031 148.987,355.707 149.762 L 355.118 151.172 344.551 151.172 C 338.103 151.172,333.984 151.027,333.984 150.799 C 333.984 150.594,333.545 149.987,333.008 149.450 C 332.471 148.912,332.031 148.533,332.031 148.606 M52.056 158.874 C 52.650 158.964,53.529 158.961,54.009 158.869 C 54.490 158.776,54.004 158.703,52.930 158.705 C 51.855 158.708,51.462 158.784,52.056 158.874 M26.878 179.198 C 29.522 179.266,33.741 179.266,36.253 179.198 C 38.765 179.130,36.602 179.074,31.445 179.075 C 26.289 179.075,24.234 179.131,26.878 179.198 M59.301 179.198 C 62.375 179.265,67.297 179.264,70.238 179.198 C 73.180 179.132,70.664 179.078,64.648 179.078 C 58.633 179.078,56.226 179.132,59.301 179.198 M133.132 179.199 C 137.712 179.261,145.094 179.261,149.538 179.199 C 153.982 179.136,150.234 179.085,141.211 179.085 C 132.188 179.085,128.552 179.136,133.132 179.199 M166.504 179.195 C 167.739 179.272,169.761 179.272,170.996 179.195 C 172.231 179.117,171.221 179.054,168.750 179.054 C 166.279 179.054,165.269 179.117,166.504 179.195 M180.176 179.186 C 180.767 179.276,181.733 179.276,182.324 179.186 C 182.915 179.097,182.432 179.023,181.250 179.023 C 180.068 179.023,179.585 179.097,180.176 179.186 M237.012 179.194 C 238.140 179.273,239.985 179.273,241.113 179.194 C 242.241 179.115,241.318 179.051,239.063 179.051 C 236.807 179.051,235.884 179.115,237.012 179.194 M274.316 179.197 C 276.196 179.269,279.272 179.269,281.152 179.197 C 283.032 179.125,281.494 179.067,277.734 179.067 C 273.975 179.067,272.437 179.125,274.316 179.197 M308.887 179.198 C 311.089 179.267,314.692 179.267,316.895 179.198 C 319.097 179.128,317.295 179.071,312.891 179.071 C 308.486 179.071,306.685 179.128,308.887 179.198 M355.201 179.199 C 359.244 179.262,365.748 179.262,369.654 179.199 C 373.561 179.135,370.254 179.083,362.305 179.083 C 354.355 179.083,351.159 179.135,355.201 179.199 M20.872 182.135 C 21.014 182.615,21.377 184.462,21.680 186.240 C 21.983 188.017,22.337 189.643,22.467 189.853 C 22.851 190.475,374.804 190.368,375.272 189.746 C 375.575 189.343,376.162 186.161,376.659 182.227 C 376.758 181.446,376.504 181.445,198.687 181.354 L 20.615 181.263 20.872 182.135 M259.091 291.016 C 259.091 291.982,259.167 292.378,259.260 291.895 C 259.353 291.411,259.353 290.620,259.260 290.137 C 259.167 289.653,259.091 290.049,259.091 291.016 M184.082 328.004 C 184.458 328.102,185.073 328.102,185.449 328.004 C 185.825 327.905,185.518 327.825,184.766 327.825 C 184.014 327.825,183.706 327.905,184.082 328.004 " stroke="none" fill="#e47a1c" fill-rule="evenodd"></path><path id="path3" d="M116.385 28.418 L 115.039 29.883 116.504 28.537 C 117.310 27.796,117.969 27.137,117.969 27.072 C 117.969 26.774,117.638 27.055,116.385 28.418 M319.565 84.226 C 320.083 84.896,320.586 85.374,320.682 85.288 C 320.778 85.203,320.354 84.655,319.739 84.070 L 318.622 83.008 319.565 84.226 M86.235 129.573 C 86.721 129.667,87.424 129.663,87.798 129.565 C 88.171 129.467,87.773 129.391,86.914 129.395 C 86.055 129.400,85.749 129.480,86.235 129.573 M104.980 129.583 C 105.894 129.665,107.388 129.665,108.301 129.583 C 109.214 129.501,108.467 129.433,106.641 129.433 C 104.814 129.433,104.067 129.501,104.980 129.583 M111.828 129.584 C 112.855 129.665,114.437 129.664,115.344 129.582 C 116.250 129.500,115.410 129.434,113.477 129.436 C 111.543 129.437,110.801 129.504,111.828 129.584 M188.191 129.580 C 188.893 129.667,189.947 129.665,190.534 129.576 C 191.121 129.487,190.547 129.416,189.258 129.418 C 187.969 129.420,187.488 129.493,188.191 129.580 M216.895 129.584 C 217.915 129.664,219.585 129.664,220.605 129.584 C 221.626 129.504,220.791 129.438,218.750 129.438 C 216.709 129.438,215.874 129.504,216.895 129.584 M223.344 129.573 C 223.830 129.667,224.533 129.663,224.907 129.565 C 225.280 129.467,224.883 129.391,224.023 129.395 C 223.164 129.400,222.858 129.480,223.344 129.573 M251.079 129.573 C 251.565 129.667,252.268 129.663,252.641 129.565 C 253.015 129.467,252.617 129.391,251.758 129.395 C 250.898 129.400,250.593 129.480,251.079 129.573 M306.152 129.585 C 307.280 129.664,309.126 129.664,310.254 129.585 C 311.382 129.506,310.459 129.441,308.203 129.441 C 305.947 129.441,305.024 129.506,306.152 129.585 M365.923 129.573 C 366.408 129.667,367.112 129.663,367.485 129.565 C 367.858 129.467,367.461 129.391,366.602 129.395 C 365.742 129.400,365.437 129.480,365.923 129.573 M255.973 129.978 C 257.432 130.053,259.718 130.052,261.051 129.976 C 262.385 129.900,261.191 129.839,258.398 129.839 C 255.605 129.840,254.514 129.902,255.973 129.978 M278.418 129.979 C 281.265 130.046,285.923 130.046,288.770 129.979 C 291.616 129.913,289.287 129.858,283.594 129.858 C 277.900 129.858,275.571 129.913,278.418 129.979 M299.902 129.970 C 300.601 130.057,301.743 130.057,302.441 129.970 C 303.140 129.883,302.568 129.813,301.172 129.813 C 299.775 129.813,299.204 129.883,299.902 129.970 M391.016 131.445 C 391.744 132.197,392.429 132.813,392.536 132.813 C 392.643 132.813,392.135 132.197,391.406 131.445 C 390.677 130.693,389.993 130.078,389.886 130.078 C 389.778 130.078,390.287 130.693,391.016 131.445 M340.014 140.332 L 338.867 141.602 340.137 140.454 C 340.835 139.823,341.406 139.252,341.406 139.185 C 341.406 138.883,341.084 139.149,340.014 140.332 M363.784 143.164 C 363.787 144.238,363.862 144.631,363.952 144.038 C 364.042 143.444,364.040 142.565,363.947 142.084 C 363.854 141.604,363.781 142.090,363.784 143.164 M47.479 145.020 C 47.625 145.503,47.905 146.070,48.101 146.280 C 48.298 146.490,48.261 146.095,48.019 145.401 C 47.525 143.982,47.068 143.660,47.479 145.020 M353.879 152.843 C 353.112 153.535,352.145 154.324,351.731 154.595 C 351.316 154.867,351.504 154.839,352.148 154.533 C 352.793 154.226,353.837 153.433,354.468 152.769 C 355.956 151.204,355.652 151.242,353.879 152.843 M329.492 155.078 C 330.768 156.367,331.899 157.422,332.007 157.422 C 332.114 157.422,331.158 156.367,329.883 155.078 C 328.607 153.789,327.476 152.734,327.368 152.734 C 327.261 152.734,328.217 153.789,329.492 155.078 M357.813 156.836 C 356.864 157.803,355.956 158.594,355.796 158.594 C 355.635 158.594,355.065 159.033,354.528 159.570 C 353.991 160.107,353.687 160.547,353.853 160.547 C 354.202 160.547,360.068 155.125,359.749 155.097 C 359.633 155.086,358.761 155.869,357.813 156.836 M50.646 162.598 C 50.746 162.759,51.773 162.891,52.930 162.891 C 54.086 162.891,55.113 162.759,55.213 162.598 C 55.313 162.437,54.285 162.305,52.930 162.305 C 51.574 162.305,50.547 162.437,50.646 162.598 M5.469 171.799 C 5.469 171.975,5.996 172.509,6.641 172.985 C 7.285 173.462,7.813 173.787,7.813 173.709 C 7.813 173.631,7.285 173.097,6.641 172.522 C 5.996 171.948,5.469 171.622,5.469 171.799 M8.945 174.336 C 9.127 174.517,9.869 174.605,10.595 174.530 C 11.882 174.398,11.873 174.390,10.264 174.200 C 9.357 174.092,8.763 174.154,8.945 174.336 M16.313 174.495 C 16.799 174.588,17.502 174.585,17.876 174.487 C 18.249 174.389,17.852 174.313,16.992 174.317 C 16.133 174.322,15.827 174.402,16.313 174.495 M29.395 174.511 C 35.356 174.572,45.112 174.572,51.074 174.511 C 57.036 174.451,52.158 174.401,40.234 174.401 C 28.311 174.401,23.433 174.451,29.395 174.511 M90.557 174.512 C 103.089 174.569,123.479 174.569,135.870 174.512 C 148.261 174.454,138.008 174.408,113.086 174.408 C 88.164 174.408,78.026 174.454,90.557 174.512 M170.634 174.512 C 177.148 174.572,187.695 174.572,194.071 174.511 C 200.447 174.451,195.117 174.402,182.227 174.402 C 169.336 174.402,164.119 174.451,170.634 174.512 M219.434 174.509 C 220.991 174.583,223.540 174.583,225.098 174.509 C 226.655 174.435,225.381 174.374,222.266 174.374 C 219.150 174.374,217.876 174.435,219.434 174.509 M239.160 174.511 C 245.122 174.572,254.878 174.572,260.840 174.511 C 266.802 174.451,261.924 174.401,250.000 174.401 C 238.076 174.401,233.198 174.451,239.160 174.511 M295.020 174.511 C 300.981 174.572,310.737 174.572,316.699 174.511 C 322.661 174.451,317.783 174.401,305.859 174.401 C 293.936 174.401,289.058 174.451,295.020 174.511 M344.434 174.510 C 346.421 174.581,349.673 174.581,351.660 174.510 C 353.647 174.439,352.021 174.381,348.047 174.381 C 344.072 174.381,342.446 174.439,344.434 174.510 M377.441 174.506 C 378.462 174.586,380.132 174.586,381.152 174.506 C 382.173 174.425,381.338 174.360,379.297 174.360 C 377.256 174.360,376.421 174.425,377.441 174.506 M90.137 181.526 C 90.620 181.619,91.411 181.619,91.895 181.526 C 92.378 181.433,91.982 181.356,91.016 181.356 C 90.049 181.356,89.653 181.433,90.137 181.526 M202.237 181.532 C 202.931 181.618,204.161 181.620,204.972 181.535 C 205.782 181.451,205.215 181.380,203.711 181.378 C 202.207 181.376,201.544 181.446,202.237 181.532 M252.637 181.533 C 253.335 181.619,254.478 181.619,255.176 181.533 C 255.874 181.446,255.303 181.375,253.906 181.375 C 252.510 181.375,251.938 181.446,252.637 181.533 M258.496 181.533 C 259.194 181.619,260.337 181.619,261.035 181.533 C 261.733 181.446,261.162 181.375,259.766 181.375 C 258.369 181.375,257.798 181.446,258.496 181.533 M287.969 181.541 C 289.838 181.612,293.002 181.612,295.000 181.541 C 296.998 181.470,295.469 181.412,291.602 181.411 C 287.734 181.411,286.100 181.469,287.969 181.541 M20.970 183.984 C 21.102 184.951,21.352 186.094,21.527 186.523 C 21.718 186.990,21.750 186.596,21.608 185.547 C 21.477 184.580,21.226 183.438,21.051 183.008 C 20.860 182.541,20.828 182.935,20.970 183.984 M376.397 183.887 C 375.796 187.378,375.764 187.726,376.116 186.914 C 376.516 185.991,377.079 182.422,376.825 182.422 C 376.729 182.422,376.536 183.081,376.397 183.887 M21.900 189.337 C 21.886 189.810,22.030 190.601,22.220 191.095 C 22.813 192.640,25.524 205.675,26.224 210.352 C 26.417 211.641,26.672 213.001,26.789 213.376 C 26.907 213.750,27.082 214.541,27.178 215.133 C 27.274 215.726,27.441 216.606,27.551 217.090 L 27.749 217.969 74.383 217.969 L 121.017 217.969 121.772 216.689 C 125.946 209.613,135.719 205.638,143.613 207.804 C 148.829 209.234,154.801 213.594,155.912 216.780 L 156.326 217.969 198.455 217.969 L 240.583 217.969 242.003 215.829 C 249.542 204.471,269.536 204.990,275.541 216.699 L 276.192 217.969 323.252 217.969 L 370.313 217.969 370.312 217.051 C 370.312 216.547,370.678 214.482,371.124 212.462 C 372.217 207.515,372.143 207.877,373.866 199.023 C 374.702 194.727,375.488 190.771,375.612 190.234 C 375.793 189.448,375.740 189.353,375.340 189.746 C 374.945 190.135,339.097 190.234,198.737 190.234 L 22.631 190.234 22.278 189.355 L 21.925 188.477 21.900 189.337 " stroke="none" fill="#dc7414" fill-rule="evenodd"></path><path id="path4" d="M119.028 24.594 C 117.784 25.225,115.977 26.585,115.013 27.617 C 114.049 28.648,113.002 29.771,112.685 30.111 C 112.368 30.451,112.109 30.983,112.109 31.294 C 112.109 31.604,111.758 32.159,111.328 32.527 C 110.898 32.894,110.547 33.461,110.547 33.785 C 110.547 34.110,110.392 34.375,110.204 34.375 C 110.015 34.375,109.642 34.902,109.375 35.547 C 109.108 36.191,108.748 36.719,108.574 36.719 C 107.966 36.719,106.988 37.997,107.192 38.527 C 107.305 38.821,107.183 39.065,106.921 39.069 C 106.660 39.072,106.006 39.974,105.469 41.072 C 104.932 42.171,104.133 43.235,103.693 43.436 C 103.253 43.638,102.466 44.714,101.942 45.827 C 100.907 48.031,100.800 48.188,98.926 50.265 C 98.228 51.039,97.656 51.830,97.656 52.024 C 97.656 52.401,97.453 52.684,95.910 54.452 C 95.366 55.074,94.922 55.897,94.922 56.281 C 94.922 56.665,94.585 57.086,94.173 57.216 C 93.762 57.347,93.243 57.974,93.022 58.610 C 92.800 59.245,92.434 59.766,92.208 59.766 C 91.982 59.766,91.797 60.002,91.797 60.292 C 91.797 60.581,91.449 61.240,91.023 61.757 C 90.597 62.273,90.094 62.882,89.904 63.111 C 89.714 63.339,89.331 63.951,89.054 64.470 C 88.776 64.989,88.313 65.649,88.024 65.938 C 87.736 66.226,87.500 66.713,87.500 67.020 C 87.500 67.327,87.324 67.578,87.109 67.578 C 86.895 67.578,86.719 67.847,86.719 68.175 C 86.719 68.503,86.193 69.338,85.552 70.030 C 83.557 72.181,82.813 73.150,82.812 73.595 C 82.812 73.987,82.268 74.719,80.077 77.279 C 79.648 77.781,79.297 78.352,79.297 78.549 C 79.297 78.745,78.989 79.245,78.613 79.660 C 77.340 81.063,76.953 81.607,76.953 81.995 C 76.953 82.207,76.509 82.861,75.967 83.446 C 75.424 84.032,75.039 84.689,75.112 84.907 C 75.185 85.124,74.969 85.596,74.634 85.954 C 74.298 86.313,73.584 87.184,73.047 87.891 C 72.510 88.597,71.800 89.464,71.469 89.818 C 71.138 90.171,70.485 91.195,70.017 92.093 C 68.580 94.849,67.182 96.902,66.585 97.131 C 66.272 97.251,66.016 97.568,66.016 97.836 C 66.016 98.104,65.576 98.798,65.039 99.377 C 64.502 99.957,64.063 100.605,64.063 100.818 C 64.062 101.031,63.883 101.417,63.665 101.677 C 62.076 103.560,61.719 104.088,61.719 104.552 C 61.719 104.841,61.571 105.078,61.391 105.078 C 61.210 105.078,60.860 105.524,60.611 106.069 C 60.130 107.125,59.804 107.567,58.105 109.463 C 57.515 110.123,57.031 110.892,57.031 111.171 C 57.031 111.451,56.793 111.821,56.502 111.992 C 56.210 112.164,55.683 112.920,55.330 113.672 C 54.977 114.424,54.249 115.550,53.711 116.174 C 53.174 116.798,52.734 117.534,52.734 117.808 C 52.734 118.082,52.398 118.414,51.986 118.544 C 51.574 118.675,51.056 119.302,50.834 119.938 C 50.613 120.574,50.258 121.094,50.047 121.094 C 49.835 121.094,49.539 121.489,49.388 121.973 C 49.237 122.456,49.005 122.939,48.872 123.047 C 48.739 123.154,48.104 124.033,47.460 125.000 C 46.816 125.967,46.069 126.990,45.801 127.274 C 45.532 127.558,45.313 127.946,45.313 128.137 C 45.313 129.019,43.106 132.010,42.307 132.211 C 41.748 132.351,41.329 132.830,41.177 133.502 C 40.835 135.013,40.092 136.719,39.776 136.719 C 39.183 136.719,38.282 141.128,38.287 144.005 C 38.296 148.854,40.209 153.130,43.137 154.846 C 44.068 155.392,44.926 156.088,45.043 156.394 C 45.558 157.736,52.811 159.124,55.859 158.464 C 56.396 158.347,57.275 158.159,57.813 158.046 C 59.098 157.774,62.355 155.642,64.282 153.812 C 65.128 153.008,65.931 152.349,66.066 152.347 C 66.201 152.345,66.530 151.816,66.797 151.172 C 67.064 150.527,67.413 150.000,67.572 150.000 C 67.731 150.000,68.279 149.120,68.790 148.043 C 69.301 146.967,70.028 145.989,70.406 145.869 C 71.030 145.671,71.162 145.427,71.059 144.664 C 71.040 144.522,71.303 144.250,71.645 144.059 C 71.986 143.868,72.266 143.363,72.266 142.937 C 72.266 142.511,72.529 142.062,72.852 141.938 C 73.174 141.814,73.438 141.481,73.438 141.197 C 73.438 140.913,73.657 140.449,73.926 140.165 C 74.194 139.881,74.941 138.857,75.585 137.891 C 76.229 136.924,76.865 136.045,77.000 135.938 C 77.134 135.830,77.616 134.922,78.070 133.919 C 78.525 132.916,79.316 131.765,79.829 131.362 C 80.342 130.958,81.143 129.882,81.608 128.970 C 82.074 128.058,82.755 126.980,83.122 126.574 C 84.235 125.345,84.637 124.798,85.162 123.804 C 85.438 123.280,85.785 122.764,85.932 122.656 C 86.080 122.549,86.708 121.582,87.327 120.508 C 88.593 118.314,88.962 117.803,89.941 116.878 C 90.317 116.523,90.626 115.964,90.627 115.636 C 90.628 115.308,91.419 114.168,92.384 113.102 C 93.350 112.037,94.141 110.978,94.141 110.748 C 94.141 110.518,94.624 109.780,95.215 109.107 C 96.976 107.102,97.656 106.120,97.656 105.585 C 97.656 105.306,97.832 105.078,98.047 105.078 C 98.262 105.078,98.438 104.841,98.438 104.552 C 98.438 103.903,99.750 102.344,100.296 102.344 C 100.517 102.344,100.812 101.883,100.954 101.320 C 101.095 100.757,101.421 100.060,101.679 99.771 C 102.769 98.551,103.043 98.138,103.299 97.333 C 103.447 96.866,103.704 96.484,103.870 96.484 C 104.036 96.484,104.375 96.038,104.623 95.493 C 105.103 94.439,105.278 94.195,106.818 92.431 C 107.357 91.813,107.710 91.166,107.603 90.993 C 107.496 90.820,107.735 90.447,108.133 90.163 C 108.532 89.880,109.282 88.861,109.800 87.898 C 110.318 86.935,111.018 85.880,111.356 85.554 C 111.693 85.228,112.569 83.950,113.302 82.715 C 114.036 81.479,114.839 80.469,115.088 80.469 C 115.337 80.469,115.651 80.029,115.785 79.492 C 115.920 78.955,116.203 78.516,116.414 78.516 C 116.624 78.516,116.797 78.261,116.797 77.950 C 116.797 77.639,117.234 76.892,117.767 76.290 C 119.318 74.541,119.392 74.436,120.084 72.978 C 120.446 72.214,121.085 71.222,121.504 70.772 C 121.923 70.322,122.266 69.767,122.266 69.537 C 122.266 69.307,122.791 68.553,123.433 67.861 C 125.601 65.522,126.172 64.727,126.172 64.045 C 126.172 63.671,126.436 63.264,126.758 63.140 C 127.080 63.016,127.344 62.661,127.344 62.350 C 127.344 61.826,128.108 60.759,129.785 58.943 C 130.161 58.536,130.469 58.059,130.469 57.883 C 130.469 57.707,130.908 57.181,131.445 56.714 C 131.982 56.247,132.422 55.644,132.422 55.374 C 132.423 54.948,132.932 54.227,134.764 52.061 C 134.986 51.798,135.337 51.139,135.543 50.596 C 135.749 50.053,136.086 49.609,136.292 49.609 C 136.498 49.609,136.783 49.240,136.926 48.790 C 137.069 48.339,137.521 47.636,137.929 47.227 C 138.338 46.819,138.672 46.221,138.672 45.898 C 138.672 45.576,138.823 45.313,139.008 45.313 C 140.214 45.313,141.671 36.718,140.895 34.180 C 138.365 25.900,134.909 23.445,125.781 23.447 C 121.586 23.447,121.139 23.523,119.028 24.594 M265.430 24.046 C 259.550 26.130,255.801 31.782,256.393 37.672 C 256.748 41.210,256.881 41.773,257.995 44.469 C 259.071 47.070,259.301 47.428,261.035 49.189 C 261.626 49.789,262.109 50.445,262.109 50.646 C 262.109 51.010,262.662 51.792,264.355 53.827 C 264.838 54.408,265.234 55.104,265.234 55.374 C 265.234 55.644,265.674 56.247,266.211 56.714 C 266.748 57.181,267.188 57.795,267.188 58.078 C 267.188 58.362,267.325 58.594,267.492 58.594 C 267.660 58.594,268.019 59.077,268.289 59.668 C 269.213 61.687,269.716 62.500,270.042 62.500 C 270.567 62.500,271.358 63.440,271.676 64.441 C 271.989 65.427,272.272 65.827,273.828 67.483 C 274.365 68.055,274.828 68.705,274.857 68.929 C 274.886 69.153,274.930 69.544,274.955 69.798 C 274.980 70.052,275.330 70.364,275.733 70.492 C 276.136 70.620,276.881 71.600,277.389 72.671 C 277.897 73.741,278.625 74.715,279.006 74.836 C 279.387 74.957,279.599 75.219,279.476 75.417 C 279.353 75.615,279.678 76.174,280.197 76.658 C 280.717 77.143,281.266 77.935,281.417 78.418 C 281.569 78.901,281.826 79.297,281.988 79.297 C 282.151 79.297,282.693 80.132,283.194 81.152 C 283.694 82.173,284.384 83.307,284.728 83.673 C 285.887 84.908,286.328 85.513,286.328 85.866 C 286.328 86.060,286.899 86.852,287.598 87.626 C 289.640 89.890,289.844 90.172,289.844 90.747 C 289.844 91.047,290.288 91.801,290.831 92.423 C 292.235 94.032,292.412 94.272,292.977 95.337 C 293.255 95.861,293.792 96.561,294.171 96.894 C 294.981 97.605,296.875 101.053,296.875 101.816 C 296.875 102.106,297.074 102.344,297.317 102.344 C 297.897 102.344,299.219 103.879,299.219 104.552 C 299.219 104.841,299.351 105.078,299.512 105.079 C 299.673 105.079,300.298 105.958,300.901 107.032 C 301.505 108.106,302.164 108.984,302.366 108.984 C 302.569 108.984,302.734 109.238,302.734 109.549 C 302.734 109.859,303.338 110.771,304.075 111.576 C 304.812 112.381,305.735 113.707,306.126 114.523 C 306.516 115.339,307.050 116.009,307.312 116.011 C 307.574 116.014,307.695 116.257,307.582 116.551 C 307.394 117.042,308.138 118.103,308.894 118.422 C 309.067 118.495,309.718 119.434,310.341 120.508 C 310.964 121.582,311.881 122.781,312.378 123.173 C 312.875 123.564,313.281 124.109,313.281 124.383 C 313.281 124.656,313.630 125.303,314.055 125.819 C 315.327 127.361,315.416 127.495,315.912 128.613 C 316.175 129.204,316.550 129.688,316.746 129.688 C 316.942 129.688,317.213 130.127,317.348 130.664 C 317.483 131.201,317.753 131.641,317.948 131.641 C 318.143 131.641,318.874 132.651,319.573 133.887 C 320.273 135.122,321.077 136.273,321.360 136.445 C 321.643 136.617,321.875 137.011,321.875 137.321 C 321.875 137.631,322.402 138.354,323.047 138.929 C 323.691 139.503,324.219 140.208,324.219 140.494 C 324.219 140.781,324.383 141.016,324.583 141.016 C 324.783 141.016,325.061 141.373,325.199 141.809 C 325.338 142.246,325.833 143.020,326.300 143.530 C 327.752 145.116,328.000 145.509,328.490 146.992 C 328.751 147.784,329.182 148.565,329.447 148.727 C 329.712 148.890,330.155 149.585,330.432 150.271 C 332.906 156.398,343.064 160.131,350.355 157.592 C 358.985 154.587,362.139 144.230,357.129 135.352 C 356.886 134.922,356.589 134.099,356.468 133.522 C 356.347 132.946,355.924 132.371,355.527 132.245 C 355.131 132.119,354.607 131.580,354.365 131.047 C 354.122 130.514,353.763 130.078,353.566 130.078 C 353.370 130.078,353.091 129.605,352.946 129.027 C 352.801 128.449,352.385 127.702,352.021 127.367 C 351.658 127.032,350.835 125.967,350.192 125.000 C 349.549 124.033,348.895 123.185,348.738 123.114 C 348.368 122.949,346.330 119.930,345.990 119.043 C 345.846 118.667,345.546 118.359,345.325 118.359 C 345.103 118.359,344.922 118.123,344.922 117.833 C 344.922 117.544,344.554 116.885,344.103 116.368 C 343.653 115.852,342.827 114.639,342.267 113.672 C 341.708 112.705,341.021 111.773,340.742 111.602 C 340.463 111.430,340.234 111.060,340.234 110.780 C 340.234 110.325,339.423 109.245,337.688 107.389 C 337.370 107.049,337.109 106.584,337.109 106.356 C 337.109 106.128,336.581 105.352,335.936 104.631 C 334.339 102.846,334.306 102.797,333.246 100.629 C 332.366 98.829,331.905 98.199,330.060 96.275 C 329.640 95.838,329.297 95.303,329.297 95.085 C 329.297 94.664,328.428 93.411,327.148 91.986 C 326.719 91.508,326.309 90.874,326.237 90.578 C 326.166 90.281,325.811 89.763,325.449 89.425 C 325.087 89.087,324.459 88.076,324.055 87.178 C 323.650 86.281,323.189 85.547,323.030 85.547 C 322.871 85.547,322.634 85.119,322.502 84.596 C 322.371 84.074,321.957 83.548,321.581 83.428 C 321.206 83.309,320.465 82.393,319.935 81.393 C 319.406 80.393,318.737 79.340,318.449 79.052 C 318.162 78.765,317.851 78.139,317.760 77.663 C 317.668 77.187,317.335 76.653,317.019 76.476 C 316.467 76.167,316.024 75.733,314.917 74.418 C 314.635 74.083,314.339 73.466,314.258 73.047 C 314.105 72.251,313.646 71.592,312.261 70.178 C 311.808 69.715,311.313 68.940,311.161 68.457 C 311.009 67.974,310.740 67.578,310.563 67.578 C 310.386 67.578,310.131 67.139,309.996 66.602 C 309.861 66.064,309.581 65.625,309.373 65.625 C 309.165 65.625,308.738 65.010,308.424 64.258 C 308.109 63.506,307.580 62.891,307.246 62.891 C 306.913 62.891,306.641 62.640,306.641 62.333 C 306.641 62.026,306.421 61.539,306.152 61.251 C 305.884 60.964,305.228 59.896,304.696 58.880 C 304.163 57.863,303.583 57.031,303.406 57.031 C 303.229 57.031,302.901 56.504,302.676 55.859 C 302.451 55.215,302.126 54.688,301.953 54.688 C 301.669 54.688,300.037 52.320,299.664 51.367 C 299.580 51.152,299.128 50.625,298.659 50.195 C 297.694 49.312,294.922 44.855,294.922 44.187 C 294.922 43.947,294.662 43.750,294.343 43.750 C 294.025 43.750,293.655 43.311,293.520 42.773 C 293.385 42.236,293.118 41.797,292.926 41.797 C 292.735 41.797,292.578 41.539,292.578 41.224 C 292.578 40.910,292.054 40.075,291.413 39.369 C 289.298 37.041,289.063 36.724,289.063 36.209 C 289.063 35.929,288.447 35.028,287.695 34.207 C 286.943 33.386,286.328 32.501,286.328 32.239 C 286.328 30.839,280.161 24.833,277.958 24.088 C 275.494 23.255,267.735 23.229,265.430 24.046 M132.788 25.808 C 137.154 28.200,139.240 31.974,139.251 37.500 C 139.259 42.021,138.925 42.841,134.473 49.212 C 133.560 50.518,132.813 51.689,132.813 51.814 C 132.813 51.939,132.359 52.593,131.805 53.267 C 130.418 54.954,125.781 61.328,125.781 61.548 C 125.781 61.747,123.713 64.736,121.419 67.854 C 120.595 68.973,119.922 70.014,119.922 70.167 C 119.922 70.321,119.630 70.769,119.273 71.163 C 118.916 71.558,118.433 72.205,118.199 72.601 C 117.010 74.615,113.233 80.062,112.869 80.287 C 112.640 80.429,112.279 80.923,112.069 81.386 C 111.424 82.799,110.692 83.972,109.890 84.878 C 108.950 85.938,106.250 89.771,106.250 90.044 C 106.250 90.289,103.632 94.083,102.815 95.022 C 102.171 95.762,101.424 96.985,100.839 98.258 C 100.637 98.697,100.190 99.290,99.845 99.576 C 99.501 99.862,99.219 100.262,99.219 100.466 C 99.219 100.670,98.516 101.670,97.656 102.689 C 96.797 103.709,96.094 104.724,96.094 104.945 C 96.094 105.166,95.742 105.666,95.313 106.055 C 94.883 106.444,94.531 106.931,94.531 107.138 C 94.531 107.345,94.048 108.081,93.457 108.773 C 92.866 109.466,92.119 110.440,91.797 110.938 C 91.475 111.435,90.728 112.409,90.137 113.102 C 89.546 113.794,89.063 114.471,89.063 114.606 C 89.063 114.741,88.447 115.727,87.695 116.797 C 86.943 117.867,86.328 118.846,86.328 118.973 C 86.328 119.100,85.713 119.955,84.961 120.873 C 84.209 121.791,83.594 122.662,83.594 122.810 C 83.594 123.055,82.105 125.318,81.640 125.781 C 81.532 125.889,80.925 126.768,80.292 127.734 C 79.659 128.701,78.800 129.881,78.383 130.356 C 77.967 130.832,77.430 131.567,77.192 131.990 C 76.765 132.745,72.881 138.631,71.439 140.707 C 71.034 141.289,70.703 141.927,70.703 142.124 C 70.703 142.321,70.421 142.716,70.076 143.003 C 69.732 143.289,69.293 143.881,69.100 144.320 C 68.908 144.758,68.041 146.084,67.172 147.266 C 66.304 148.447,65.435 149.794,65.242 150.257 C 64.864 151.164,60.201 155.017,58.594 155.751 C 56.605 156.659,51.647 157.272,51.058 156.683 C 50.820 156.445,50.177 156.242,49.629 156.231 C 48.515 156.210,47.090 155.504,44.283 153.582 C 38.641 149.721,38.617 138.895,44.236 132.942 C 45.394 131.715,46.096 130.661,46.834 129.042 C 47.045 128.579,47.415 128.079,47.656 127.930 C 47.898 127.781,48.259 127.280,48.459 126.818 C 48.659 126.355,49.962 124.395,51.355 122.461 C 52.747 120.527,55.616 116.396,57.731 113.281 C 61.953 107.060,65.497 101.902,67.353 99.276 C 68.014 98.341,68.730 97.300,68.945 96.961 C 69.160 96.623,70.259 94.964,71.387 93.275 C 72.515 91.586,73.438 90.107,73.438 89.989 C 73.438 89.870,74.185 88.866,75.098 87.758 C 76.906 85.562,77.542 84.627,78.102 83.339 C 78.303 82.876,78.665 82.376,78.906 82.227 C 79.148 82.077,79.510 81.577,79.711 81.114 C 79.912 80.652,80.296 79.937,80.565 79.526 C 81.061 78.769,81.187 78.605,83.144 76.172 C 83.749 75.420,84.368 74.541,84.520 74.219 C 85.127 72.931,85.816 71.933,87.402 70.038 C 88.315 68.948,89.063 67.946,89.063 67.813 C 89.063 67.679,89.678 66.695,90.430 65.625 C 91.182 64.555,91.797 63.583,91.797 63.465 C 91.797 63.212,93.338 60.997,94.043 60.237 C 94.312 59.947,94.531 59.528,94.531 59.306 C 94.531 59.083,94.971 58.556,95.508 58.133 C 96.045 57.711,96.484 57.186,96.484 56.967 C 96.484 56.748,96.792 56.166,97.168 55.673 C 97.544 55.181,98.115 54.378,98.438 53.890 C 98.760 53.401,99.463 52.458,100.000 51.794 C 101.269 50.224,102.734 48.131,102.734 47.887 C 102.734 47.534,105.050 44.260,105.654 43.759 C 105.982 43.486,106.250 43.036,106.250 42.758 C 106.250 42.480,106.382 42.194,106.543 42.122 C 106.978 41.929,108.984 39.170,108.984 38.766 C 108.984 38.574,109.424 38.005,109.961 37.500 C 110.498 36.995,110.938 36.436,110.938 36.256 C 110.938 36.076,111.587 35.008,112.380 33.883 C 113.173 32.757,114.300 31.133,114.884 30.273 C 118.557 24.865,127.153 22.721,132.788 25.808 M277.539 25.544 C 279.426 26.439,282.422 29.151,283.342 30.796 C 284.348 32.595,289.312 39.770,290.699 41.431 C 291.518 42.412,292.188 43.396,292.188 43.617 C 292.188 43.838,292.539 44.338,292.969 44.727 C 293.398 45.115,293.750 45.583,293.750 45.765 C 293.750 46.141,297.138 51.153,297.807 51.767 C 298.341 52.257,299.103 53.442,299.570 54.508 C 299.762 54.947,300.201 55.540,300.545 55.826 C 300.890 56.112,301.172 56.512,301.172 56.715 C 301.172 57.024,302.869 59.519,303.513 60.156 C 303.842 60.481,304.668 61.864,305.038 62.711 C 305.230 63.150,305.669 63.743,306.014 64.029 C 306.359 64.315,306.641 64.724,306.641 64.938 C 306.641 65.152,307.124 65.901,307.715 66.604 C 308.306 67.306,309.492 68.976,310.352 70.314 C 311.861 72.664,312.199 73.177,313.849 75.625 C 314.269 76.248,315.236 77.550,315.998 78.517 C 317.553 80.493,318.202 81.476,318.706 82.617 C 318.896 83.047,319.423 83.733,319.877 84.143 C 320.331 84.552,320.703 85.025,320.703 85.193 C 320.703 85.362,321.802 87.104,323.145 89.064 C 324.487 91.025,325.850 93.038,326.172 93.538 C 326.494 94.039,327.711 95.829,328.876 97.517 C 330.040 99.205,332.207 102.388,333.690 104.590 C 335.173 106.792,336.549 108.594,336.748 108.594 C 336.947 108.594,337.109 108.800,337.109 109.051 C 337.109 109.303,337.401 109.831,337.758 110.226 C 338.115 110.620,338.599 111.289,338.833 111.713 C 339.800 113.463,346.357 122.983,347.733 124.635 C 348.550 125.615,349.219 126.595,349.219 126.813 C 349.219 127.030,349.677 127.634,350.237 128.155 C 350.797 128.675,351.419 129.453,351.621 129.883 C 352.296 131.325,353.011 132.445,353.810 133.315 C 357.275 137.089,358.648 144.841,356.661 149.414 C 352.511 158.965,336.512 158.839,331.886 149.219 C 331.111 147.607,330.588 146.731,329.396 145.046 C 328.912 144.362,328.516 143.642,328.516 143.446 C 328.516 143.250,328.164 142.772,327.734 142.383 C 327.305 141.994,326.953 141.509,326.953 141.304 C 326.953 140.995,324.923 138.160,324.229 137.500 C 323.720 137.016,322.266 134.763,322.266 134.459 C 322.266 134.273,321.826 133.708,321.289 133.203 C 320.752 132.699,320.313 132.126,320.313 131.931 C 320.313 131.736,319.697 130.826,318.945 129.908 C 318.193 128.991,317.578 128.060,317.578 127.840 C 317.578 127.620,317.296 127.205,316.951 126.919 C 316.607 126.633,316.165 126.041,315.969 125.602 C 315.301 124.104,312.235 119.869,311.621 119.596 C 311.460 119.525,311.328 119.248,311.328 118.981 C 311.328 118.714,310.889 118.083,310.352 117.578 C 309.814 117.074,309.375 116.455,309.375 116.203 C 309.375 115.952,309.023 115.428,308.594 115.039 C 308.164 114.650,307.813 114.166,307.813 113.963 C 307.813 113.761,306.758 112.195,305.469 110.484 C 304.180 108.773,303.125 107.295,303.125 107.199 C 303.125 107.102,302.510 106.148,301.758 105.078 C 301.006 104.008,300.391 102.968,300.391 102.767 C 300.391 102.565,299.995 102.080,299.512 101.689 C 299.028 101.297,298.369 100.449,298.047 99.805 C 297.725 99.160,296.974 97.930,296.380 97.070 C 295.785 96.211,294.648 94.541,293.854 93.359 C 293.060 92.178,292.316 91.123,292.201 91.016 C 291.768 90.611,290.234 88.302,290.234 88.056 C 290.234 87.826,288.963 86.182,287.311 84.277 C 286.985 83.901,286.719 83.439,286.719 83.251 C 286.719 83.062,286.437 82.674,286.092 82.388 C 285.747 82.102,285.300 81.509,285.099 81.071 C 284.596 79.977,284.035 79.069,282.314 76.563 C 278.697 71.295,276.260 67.918,275.467 67.074 C 274.995 66.571,274.609 65.979,274.609 65.758 C 274.609 65.537,274.258 65.037,273.828 64.648 C 273.398 64.260,273.047 63.736,273.047 63.484 C 273.047 63.233,272.607 62.614,272.070 62.109 C 271.533 61.605,271.094 61.045,271.094 60.865 C 271.094 60.686,270.445 59.618,269.651 58.492 C 268.858 57.366,267.720 55.724,267.123 54.842 C 266.525 53.960,265.768 53.015,265.440 52.743 C 265.112 52.471,264.844 52.047,264.844 51.801 C 264.844 51.555,264.039 50.434,263.056 49.310 C 262.072 48.185,261.396 47.266,261.554 47.266 C 261.711 47.266,261.529 46.922,261.150 46.503 C 258.702 43.799,257.518 37.686,258.583 33.250 C 260.203 26.495,270.620 22.260,277.539 25.544 M8.102 127.767 C 7.725 127.987,7.247 128.063,7.041 127.936 C 6.536 127.623,3.951 130.359,3.277 131.921 C 2.839 132.935,2.734 136.739,2.734 151.574 C 2.734 172.448,2.815 173.163,5.299 174.347 C 6.037 174.699,6.641 175.131,6.641 175.306 C 6.641 176.586,6.802 176.587,198.039 176.547 C 378.592 176.508,390.601 176.439,390.935 175.436 C 391.015 175.196,391.303 175.000,391.574 175.000 C 392.482 175.000,393.699 173.598,394.308 171.849 C 394.993 169.881,395.237 134.475,394.578 132.740 C 394.036 131.315,390.678 128.033,389.523 127.801 C 388.109 127.516,359.789 127.258,358.734 127.520 C 356.803 128.000,356.987 134.766,358.931 134.766 C 361.455 134.766,362.578 146.462,360.377 149.821 C 360.041 150.334,359.766 151.005,359.766 151.312 C 359.766 151.618,359.511 151.967,359.200 152.087 C 358.889 152.206,358.346 152.861,357.994 153.542 C 357.207 155.064,355.393 156.879,354.317 157.220 C 353.876 157.360,353.516 157.610,353.516 157.775 C 353.516 159.641,343.991 161.311,340.846 159.997 C 340.028 159.655,339.107 159.375,338.801 159.375 C 337.111 159.375,329.733 153.160,329.116 151.218 C 328.972 150.763,328.709 150.391,328.532 150.391 C 328.355 150.391,328.099 149.951,327.965 149.414 C 327.830 148.877,327.538 148.438,327.316 148.438 C 327.094 148.438,326.729 147.910,326.504 147.266 C 326.279 146.621,325.943 146.094,325.756 146.094 C 325.255 146.094,322.191 141.349,322.088 140.415 C 322.040 139.974,321.576 139.155,321.059 138.594 C 319.589 137.002,319.141 136.392,319.141 135.982 C 319.141 135.773,318.840 135.302,318.472 134.934 C 318.104 134.566,317.762 133.987,317.712 133.648 C 317.663 133.308,317.173 132.703,316.623 132.303 C 316.074 131.903,315.625 131.264,315.625 130.884 C 315.625 130.105,314.181 128.407,313.051 127.855 C 311.870 127.279,86.002 127.153,84.742 127.727 C 84.191 127.978,83.312 129.000,82.788 129.998 C 81.775 131.928,81.666 132.095,80.462 133.556 C 80.036 134.072,79.688 134.637,79.688 134.810 C 79.688 134.984,79.323 135.465,78.878 135.880 C 78.433 136.295,78.032 136.883,77.987 137.187 C 77.907 137.730,77.477 138.330,76.034 139.912 C 75.635 140.349,75.277 140.927,75.238 141.197 C 75.198 141.466,74.865 141.988,74.497 142.356 C 74.129 142.724,73.828 143.261,73.828 143.551 C 73.828 143.840,73.124 144.810,72.264 145.705 C 71.403 146.601,70.799 147.495,70.921 147.693 C 71.043 147.891,70.868 148.158,70.533 148.287 C 70.197 148.416,69.922 148.753,69.922 149.037 C 69.922 149.321,69.679 149.797,69.381 150.094 C 69.084 150.392,68.458 151.384,67.991 152.299 C 66.929 154.382,65.288 156.250,64.521 156.250 C 64.200 156.250,63.482 156.753,62.925 157.369 C 60.654 159.881,51.916 161.322,48.047 159.821 C 45.861 158.974,44.141 158.050,44.141 157.724 C 44.141 157.558,43.877 157.422,43.556 157.422 C 42.689 157.422,40.521 155.155,39.260 152.930 C 38.652 151.855,38.039 150.889,37.900 150.781 C 35.439 148.886,35.758 140.068,38.488 134.496 C 40.701 129.980,40.837 129.174,39.595 127.932 C 38.876 127.213,9.320 127.058,8.102 127.767 M38.564 129.579 C 38.690 129.908,38.493 130.638,38.126 131.201 C 35.494 135.245,33.847 141.362,34.418 144.971 C 34.827 147.560,35.917 151.180,36.521 151.953 C 36.773 152.275,37.261 153.154,37.606 153.906 C 39.564 158.170,47.113 162.431,52.808 162.486 C 56.115 162.518,62.764 160.354,64.025 158.835 C 64.313 158.487,64.740 158.203,64.974 158.203 C 65.466 158.203,68.750 155.071,68.750 154.602 C 68.750 154.430,69.332 153.456,70.044 152.437 C 70.755 151.419,71.458 150.322,71.604 150.000 C 71.751 149.678,72.579 148.447,73.444 147.266 C 75.983 143.798,79.688 138.255,79.688 137.926 C 79.688 137.758,80.039 137.303,80.469 136.914 C 80.898 136.525,81.250 136.040,81.250 135.836 C 81.250 135.631,81.756 134.823,82.375 134.041 C 82.993 133.258,83.829 131.914,84.232 131.055 C 84.930 129.564,85.063 129.482,87.111 129.277 C 88.734 129.114,223.870 129.259,258.398 129.460 C 261.406 129.478,265.449 129.443,267.383 129.384 C 269.316 129.324,275.732 129.382,281.641 129.512 C 287.820 129.648,293.544 129.589,295.117 129.373 C 296.791 129.144,298.026 129.138,298.302 129.359 C 298.567 129.572,301.485 129.609,305.431 129.449 C 312.954 129.143,312.908 129.130,314.592 132.182 C 315.524 133.871,315.727 134.201,317.383 136.719 C 318.822 138.907,319.302 139.708,320.125 141.291 C 320.482 141.979,321.023 142.748,321.325 142.999 C 321.628 143.250,321.875 143.670,321.875 143.933 C 321.875 144.195,322.227 144.728,322.656 145.117 C 323.086 145.506,323.437 145.975,323.437 146.158 C 323.437 146.342,324.087 147.413,324.880 148.539 C 325.673 149.665,326.804 151.289,327.392 152.148 C 328.660 154.002,332.719 158.063,334.034 158.793 C 342.475 163.482,348.717 163.768,353.981 159.706 C 354.774 159.094,355.572 158.594,355.755 158.594 C 356.173 158.594,359.306 155.421,359.905 154.391 C 364.772 146.015,364.743 139.898,359.797 132.227 C 357.954 129.368,357.805 129.419,368.890 129.099 C 385.967 128.607,389.219 129.029,391.979 132.100 L 393.750 134.069 393.750 151.594 L 393.750 169.120 392.813 170.790 C 391.680 172.809,390.469 173.769,388.495 174.215 C 387.679 174.399,301.988 174.569,198.072 174.592 L 9.132 174.635 7.674 173.646 C 6.872 173.102,6.047 172.656,5.842 172.656 C 5.637 172.656,5.465 172.437,5.460 172.168 C 5.455 171.899,5.108 171.240,4.688 170.703 C 3.955 169.766,3.923 168.988,3.915 151.515 L 3.906 133.304 5.418 131.601 C 7.683 129.048,8.249 128.969,24.343 128.976 C 36.531 128.982,38.365 129.059,38.564 129.579 M342.137 138.866 C 338.675 141.136,337.888 144.802,340.351 147.189 C 341.059 147.876,341.780 148.438,341.952 148.438 C 342.124 148.438,342.873 148.726,343.616 149.079 C 344.629 149.559,345.079 149.608,345.413 149.274 C 345.659 149.029,346.248 148.828,346.723 148.828 C 347.708 148.828,349.488 146.910,349.853 145.454 C 351.051 140.681,345.977 136.348,342.137 138.866 M50.082 139.284 C 45.697 142.355,48.245 149.609,53.709 149.609 C 58.816 149.609,60.858 142.080,56.477 139.408 C 54.953 138.479,51.331 138.409,50.082 139.284 M346.271 140.447 C 348.746 141.622,348.732 146.936,346.254 147.192 C 344.329 147.392,343.658 147.273,342.432 146.515 C 338.608 144.151,342.180 138.506,346.271 140.447 M55.069 140.620 C 56.110 141.177,57.516 143.620,57.259 144.428 C 57.139 144.807,57.045 145.255,57.050 145.424 C 57.141 148.426,50.996 148.136,49.992 145.092 C 48.885 141.738,52.011 138.984,55.069 140.620 M19.547 179.451 C 18.156 180.072,18.076 181.426,19.154 186.133 C 19.400 187.207,19.634 188.930,19.674 189.962 C 19.714 190.994,19.928 191.960,20.150 192.110 C 20.372 192.260,20.778 193.438,21.053 194.727 C 21.328 196.016,21.646 197.510,21.760 198.047 C 21.874 198.584,22.024 199.639,22.094 200.391 C 22.255 202.130,22.865 205.335,23.405 207.280 C 23.635 208.110,23.825 209.339,23.826 210.011 C 23.827 210.683,24.091 211.861,24.411 212.628 C 24.732 213.396,24.993 214.428,24.992 214.922 C 24.989 215.829,25.418 218.480,26.148 222.070 C 26.794 225.247,27.659 230.020,28.300 233.940 C 28.630 235.957,29.057 237.803,29.250 238.042 C 29.442 238.281,29.699 239.180,29.820 240.039 C 30.235 242.971,30.924 246.678,31.309 248.047 C 31.520 248.799,31.844 250.732,32.030 252.344 C 32.215 253.955,32.554 256.064,32.783 257.031 C 33.013 257.998,33.287 259.648,33.393 260.697 C 33.499 261.747,33.742 262.801,33.934 263.041 C 34.126 263.281,34.382 264.092,34.505 264.844 C 34.921 267.404,35.483 270.895,35.699 272.266 C 35.818 273.018,36.098 274.424,36.321 275.391 C 36.544 276.357,36.797 277.852,36.883 278.711 C 37.034 280.214,37.352 281.771,38.280 285.547 C 38.517 286.514,38.877 288.096,39.080 289.063 C 39.283 290.029,39.641 291.611,39.876 292.578 C 40.111 293.545,40.547 296.182,40.844 298.438 C 41.449 303.019,42.306 307.917,42.956 310.501 C 43.193 311.442,43.292 312.307,43.176 312.423 C 43.061 312.538,43.228 313.033,43.549 313.522 C 43.869 314.011,44.236 315.695,44.363 317.264 C 44.491 318.833,44.758 320.557,44.957 321.094 C 45.157 321.631,45.481 323.477,45.678 325.195 C 45.876 326.914,46.210 329.111,46.422 330.078 C 46.633 331.045,46.851 332.539,46.905 333.398 C 46.959 334.258,47.214 335.313,47.471 335.744 C 47.969 336.577,48.088 337.151,48.971 342.969 C 49.852 348.774,51.780 354.272,52.941 354.290 C 53.528 354.300,54.633 355.704,54.905 356.785 C 55.045 357.341,55.724 358.019,56.574 358.451 C 57.363 358.852,58.135 359.355,58.290 359.570 C 58.445 359.785,58.726 360.192,58.915 360.475 C 59.103 360.758,59.562 361.034,59.934 361.089 C 60.305 361.143,60.740 361.399,60.900 361.658 C 61.060 361.916,61.560 362.199,62.011 362.286 C 62.463 362.373,63.241 362.700,63.741 363.014 C 66.120 364.507,66.821 364.514,200.586 364.384 L 330.273 364.258 332.617 363.355 C 333.906 362.859,335.267 362.386,335.642 362.304 C 336.016 362.222,336.740 361.705,337.249 361.156 C 337.759 360.606,338.308 360.156,338.471 360.156 C 339.074 360.156,344.968 353.784,345.710 352.330 C 347.660 348.507,348.233 346.669,348.627 342.969 C 348.889 340.499,349.307 338.718,350.093 336.719 C 350.305 336.182,350.561 335.215,350.664 334.570 C 350.766 333.926,351.020 332.607,351.227 331.641 C 351.635 329.740,352.504 324.443,353.278 319.141 C 353.544 317.314,353.985 315.410,354.257 314.908 C 354.528 314.406,354.660 313.905,354.549 313.794 C 354.438 313.682,354.532 313.126,354.758 312.557 C 354.985 311.989,355.250 310.820,355.348 309.961 C 355.664 307.193,357.366 297.977,358.576 292.480 C 358.801 291.460,359.168 289.790,359.393 288.770 C 360.304 284.632,361.013 280.657,362.335 272.266 C 363.309 266.088,363.361 265.837,363.749 265.352 C 363.955 265.095,364.195 264.392,364.282 263.790 C 364.369 263.188,364.630 261.641,364.862 260.352 C 365.094 259.063,365.529 256.426,365.830 254.492 C 367.546 243.439,367.804 242.109,368.558 240.430 C 368.847 239.785,369.264 237.676,369.485 235.742 C 369.959 231.578,370.888 225.584,371.482 222.852 C 371.920 220.835,372.592 216.956,372.803 215.226 C 372.869 214.685,373.103 213.894,373.322 213.468 C 373.541 213.043,373.852 211.816,374.014 210.742 C 374.536 207.266,374.538 207.254,375.964 199.414 C 376.316 197.480,376.703 195.283,376.825 194.531 C 376.946 193.779,377.245 192.917,377.488 192.616 C 377.731 192.314,377.954 191.347,377.985 190.467 C 378.015 189.587,378.252 187.813,378.512 186.523 C 379.351 182.358,379.387 182.054,379.160 181.157 C 379.036 180.671,378.533 180.012,378.042 179.692 C 376.984 179.004,21.086 178.765,19.547 179.451 M376.954 181.485 C 377.254 181.786,377.270 182.434,377.005 183.633 C 376.005 188.175,374.609 196.159,374.609 197.340 C 374.609 197.918,374.434 198.500,374.219 198.633 C 374.004 198.766,373.828 199.557,373.828 200.391 C 373.828 201.225,373.652 202.016,373.438 202.148 C 373.223 202.281,373.047 203.026,373.047 203.804 C 373.047 204.582,372.877 205.758,372.670 206.418 C 372.353 207.429,371.093 213.904,369.093 224.805 C 368.857 226.094,368.515 227.676,368.334 228.320 C 368.153 228.965,367.630 231.602,367.173 234.180 C 366.715 236.758,366.165 239.702,365.951 240.723 L 365.560 242.578 318.452 242.578 L 271.344 242.578 272.513 241.504 C 282.367 232.448,278.693 214.239,265.975 209.102 C 246.719 201.324,229.216 226.240,243.630 240.911 L 245.267 242.578 198.414 242.578 L 151.560 242.578 153.158 241.135 C 154.224 240.171,155.357 238.450,156.563 235.959 L 158.370 232.227 158.369 227.734 C 158.369 211.054,141.269 201.906,127.543 211.242 C 117.737 217.912,115.984 232.418,123.981 240.723 L 125.768 242.578 79.102 242.578 L 32.437 242.578 32.249 241.699 C 32.146 241.216,31.705 238.975,31.270 236.719 C 30.347 231.939,28.598 223.541,28.056 221.289 C 27.618 219.469,27.010 216.099,26.718 213.867 C 26.550 212.589,26.218 211.133,26.094 211.133 C 26.079 211.133,25.835 209.727,25.550 208.008 C 25.266 206.289,24.870 204.092,24.670 203.125 C 24.470 202.158,24.016 199.873,23.662 198.047 C 23.308 196.221,22.851 194.287,22.648 193.750 C 22.445 193.213,22.111 191.543,21.906 190.039 C 21.461 186.780,21.199 185.443,20.632 183.525 C 20.398 182.735,20.302 181.842,20.418 181.540 C 20.694 180.818,376.233 180.764,376.954 181.485 M143.164 210.081 C 144.238 210.296,145.645 210.701,146.289 210.981 C 148.791 212.070,153.906 216.954,153.906 218.254 C 153.906 218.611,154.390 219.601,154.980 220.453 C 156.499 222.644,156.820 230.217,155.510 232.924 C 155.057 233.858,154.688 234.797,154.688 235.011 C 154.688 235.225,154.355 235.757,153.948 236.194 C 153.541 236.630,152.941 237.498,152.614 238.123 C 152.287 238.747,151.631 239.521,151.157 239.844 C 150.683 240.166,150.065 240.649,149.785 240.918 C 149.504 241.187,149.162 241.406,149.025 241.406 C 148.888 241.406,148.216 241.830,147.533 242.347 C 144.509 244.634,136.721 245.570,133.711 244.008 C 133.023 243.651,132.100 243.359,131.660 243.359 C 131.220 243.359,130.490 242.990,130.038 242.538 C 129.586 242.086,128.987 241.682,128.707 241.641 C 127.938 241.528,123.828 237.214,123.828 236.520 C 123.828 236.186,123.564 235.812,123.242 235.688 C 122.920 235.564,122.656 235.195,122.656 234.868 C 122.656 234.540,122.284 233.670,121.829 232.934 C 120.314 230.482,120.725 223.242,122.535 220.519 C 122.817 220.095,123.047 219.475,123.047 219.141 C 123.047 218.807,123.574 217.956,124.219 217.250 C 124.863 216.545,125.391 215.747,125.391 215.478 C 125.391 215.208,126.094 214.592,126.953 214.109 C 127.813 213.626,128.516 213.067,128.516 212.866 C 128.516 212.665,128.767 212.500,129.074 212.500 C 129.381 212.500,129.864 212.268,130.148 211.984 C 130.647 211.484,132.711 210.660,135.547 209.826 C 137.064 209.380,140.183 209.484,143.164 210.081 M262.109 210.122 C 264.843 210.574,266.980 211.486,267.695 212.507 C 268.003 212.946,268.634 213.379,269.098 213.468 C 269.913 213.625,272.266 215.675,272.266 216.227 C 272.266 216.377,272.887 217.522,273.646 218.771 C 276.541 223.537,277.462 231.048,275.323 232.451 C 275.135 232.574,274.911 233.040,274.825 233.487 C 274.589 234.715,273.467 236.725,272.451 237.740 C 271.953 238.239,271.432 239.004,271.293 239.441 C 271.154 239.877,270.815 240.234,270.539 240.234 C 270.262 240.234,269.559 240.676,268.977 241.216 C 264.498 245.367,254.147 245.961,249.342 242.343 C 248.659 241.828,247.955 241.403,247.780 241.400 C 247.150 241.388,244.922 239.142,244.922 238.519 C 244.922 238.169,244.570 237.582,244.141 237.214 C 243.711 236.846,243.359 236.327,243.359 236.061 C 243.359 235.795,243.029 235.263,242.626 234.878 C 241.048 233.376,240.090 227.092,240.974 224.051 C 242.568 218.568,242.676 218.378,246.289 214.640 C 248.821 212.021,252.418 210.165,254.988 210.150 C 255.575 210.147,256.318 209.964,256.641 209.744 C 257.211 209.353,257.629 209.382,262.109 210.122 M149.121 283.805 C 149.819 283.953,150.391 284.229,150.391 284.419 C 150.391 284.610,150.615 284.766,150.890 284.766 C 151.164 284.766,151.690 285.117,152.058 285.547 C 152.426 285.977,152.992 286.328,153.316 286.328 C 153.641 286.328,153.906 286.464,153.906 286.630 C 153.906 286.796,154.535 287.270,155.303 287.684 C 156.071 288.098,157.065 288.753,157.511 289.140 C 157.957 289.527,158.557 289.844,158.843 289.844 C 159.129 289.844,160.220 290.371,161.268 291.016 C 162.315 291.660,163.417 292.193,163.715 292.200 C 164.014 292.207,164.599 292.470,165.016 292.786 C 165.433 293.101,166.170 293.359,166.653 293.359 C 167.137 293.359,167.638 293.530,167.767 293.739 C 167.896 293.948,169.093 294.472,170.427 294.903 C 171.760 295.335,173.906 296.061,175.195 296.517 C 176.484 296.974,177.891 297.410,178.320 297.486 C 178.750 297.563,180.156 297.820,181.445 298.058 C 187.588 299.191,203.741 299.615,210.547 298.822 C 215.688 298.223,221.927 296.861,222.780 296.153 C 223.051 295.928,223.969 295.572,224.820 295.363 C 227.432 294.719,231.735 293.092,233.789 291.972 C 236.793 290.333,239.945 288.797,240.918 288.498 C 241.401 288.350,241.797 288.065,241.797 287.864 C 241.797 287.664,242.037 287.500,242.330 287.500 C 242.623 287.500,243.452 286.985,244.173 286.357 C 252.383 279.188,262.557 285.709,257.939 295.180 C 257.150 296.799,256.301 298.202,256.054 298.297 C 255.806 298.392,255.178 299.420,254.657 300.582 C 254.120 301.782,253.331 302.869,252.832 303.097 C 252.349 303.318,251.953 303.789,251.953 304.145 C 251.953 304.500,251.162 305.581,250.195 306.548 C 249.229 307.515,248.438 308.479,248.438 308.690 C 248.438 309.140,244.585 312.891,244.123 312.891 C 243.951 312.891,243.283 313.418,242.638 314.063 C 241.994 314.707,241.303 315.234,241.104 315.234 C 240.904 315.234,240.144 315.762,239.413 316.408 C 237.039 318.507,236.724 318.750,236.373 318.750 C 236.182 318.750,234.974 319.453,233.687 320.313 C 232.400 321.172,231.152 321.875,230.913 321.875 C 230.675 321.875,229.467 322.389,228.228 323.018 C 224.501 324.910,221.931 325.854,218.534 326.579 C 217.471 326.806,215.898 327.175,215.039 327.398 C 214.180 327.622,212.720 327.838,211.796 327.877 C 210.872 327.916,209.993 328.147,209.843 328.390 C 209.005 329.745,188.220 329.682,186.859 328.321 C 186.574 328.036,185.980 327.898,185.538 328.014 C 185.097 328.130,183.555 327.875,182.114 327.449 C 180.672 327.023,178.701 326.465,177.734 326.210 C 176.768 325.954,175.442 325.605,174.789 325.432 C 174.136 325.260,172.115 324.404,170.297 323.531 C 168.479 322.657,166.113 321.544,165.039 321.057 C 163.965 320.571,162.699 319.765,162.226 319.266 C 161.753 318.767,161.045 318.359,160.653 318.359 C 160.261 318.359,159.387 317.876,158.711 317.285 C 156.443 315.301,155.605 314.632,154.460 313.891 C 152.923 312.895,147.266 307.193,147.266 306.639 C 147.266 306.396,146.675 305.638,145.953 304.954 C 145.231 304.270,144.516 303.315,144.364 302.832 C 144.212 302.349,143.943 301.953,143.766 301.953 C 143.589 301.953,143.344 301.558,143.221 301.074 C 143.098 300.591,142.430 299.580,141.736 298.828 C 138.979 295.840,138.033 292.568,138.615 288.029 C 139.012 284.923,144.313 282.792,149.121 283.805 " stroke="none" fill="#d4680c" fill-rule="evenodd"></path></g></svg>